<svg width="157" height="32" viewBox="0 0 157 32" fill="none" xmlns="http://www.w3.org/2000/svg">
<g clip-path="url(#clip0_1261_28572)">
<path d="M24.2861 16.8366L17.5281 22.8383C17.4419 22.9149 17.3353 22.965 17.2212 22.9825C17.1072 23 16.9905 22.9841 16.8852 22.9369C16.7799 22.8896 16.6906 22.8129 16.6279 22.716C16.5652 22.6191 16.5318 22.5062 16.5318 22.3908V19.034C16.5318 19.034 10.966 18.5781 7.1298 22.9105C7.07991 22.9665 7.0138 23.0055 6.94067 23.0222C6.86755 23.0388 6.79105 23.0323 6.72183 23.0034C6.65261 22.9746 6.59411 22.9248 6.55447 22.8612C6.51484 22.7975 6.49604 22.7231 6.5007 22.6482C6.68455 19.7074 7.97244 11.7448 16.5318 11.7448V8.38843C16.5318 8.27302 16.5651 8.16006 16.6278 8.06316C16.6905 7.96625 16.7798 7.88952 16.8851 7.8422C16.9903 7.79488 17.107 7.77899 17.2211 7.79643C17.3352 7.81388 17.4418 7.86392 17.5281 7.94053L24.2861 13.9422C24.4906 14.1238 24.6542 14.3467 24.7663 14.5961C24.8784 14.8456 24.9364 15.1159 24.9364 15.3894C24.9364 15.6629 24.8784 15.9332 24.7663 16.1827C24.6542 16.4321 24.4906 16.655 24.2861 16.8366Z" fill="url(#paint0_linear_1261_28572)"/>
<path d="M32.0002 9.23073V23.9796C32.0002 26.1068 31.1552 28.1469 29.651 29.651C28.1469 31.1552 26.1068 32.0002 23.9796 32.0002H10.4101C10.4101 32.0002 7.69918 31.9958 5.58105 29.152C6.37181 29.5328 7.2384 29.73 8.11607 29.7288H23.8844C24.6519 29.7288 25.4119 29.5776 26.121 29.2838C26.8301 28.9901 27.4744 28.5595 28.0171 28.0168C28.5598 27.474 28.9903 26.8297 29.284 26.1206C29.5777 25.4115 29.7288 24.6515 29.7288 23.8839V8.11607C29.73 7.2384 29.5328 6.37181 29.152 5.58105C30.0101 6.11269 31.2869 7.20121 32.0002 9.23073Z" fill="url(#paint1_linear_1261_28572)"/>
<path d="M29.1518 5.58091H29.1514C28.6742 4.58928 27.9266 3.75257 26.9948 3.16709C26.0629 2.58161 24.9847 2.27117 23.8842 2.27148H8.11593C7.34842 2.27147 6.58842 2.42263 5.87934 2.71633C5.17025 3.01004 4.52595 3.44053 3.98325 3.98324C3.44053 4.52595 3.01004 5.17025 2.71633 5.87933C2.42263 6.58842 2.27147 7.34842 2.27149 8.11593V23.8838C2.27087 24.6515 2.42163 25.4118 2.71511 26.1211C3.0086 26.8305 3.43907 27.4751 3.98189 28.0179C4.52472 28.5608 5.16924 28.9913 5.8786 29.2849C6.58796 29.5784 7.34823 29.7292 8.11593 29.7287H23.8842C24.6518 29.7286 25.4118 29.5774 26.1209 29.2837C26.83 28.9899 27.4743 28.5594 28.017 28.0166C28.5597 27.4739 28.9902 26.8296 29.2839 26.1205C29.5775 25.4113 29.7287 24.6513 29.7287 23.8838V8.11593C29.7298 7.23826 29.5326 6.37167 29.1518 5.58091ZM24.2861 16.8365L17.5281 22.8382C17.4418 22.9149 17.3352 22.965 17.2212 22.9825C17.1071 22.9999 16.9904 22.9841 16.8851 22.9368C16.7799 22.8895 16.6905 22.8129 16.6278 22.716C16.5651 22.6191 16.5317 22.5062 16.5317 22.3908V19.0339C16.5317 19.0339 10.9659 18.5781 7.12974 22.9104C7.07985 22.9664 7.01374 23.0055 6.94062 23.0221C6.8675 23.0388 6.791 23.0322 6.72178 23.0034C6.65256 22.9745 6.59405 22.9248 6.55442 22.8611C6.51478 22.7975 6.49598 22.723 6.50064 22.6482C6.6845 19.7073 7.97239 11.7448 16.5317 11.7448V8.38839C16.5317 8.27298 16.565 8.16002 16.6277 8.06311C16.6904 7.96621 16.7798 7.88948 16.885 7.84216C16.9903 7.79484 17.107 7.77894 17.2211 7.79639C17.3352 7.81383 17.4418 7.86387 17.5281 7.94049L24.2861 13.9422C24.4905 14.1238 24.6542 14.3467 24.7663 14.5961C24.8784 14.8455 24.9363 15.1159 24.9363 15.3894C24.9363 15.6628 24.8784 15.9332 24.7663 16.1826C24.6542 16.4321 24.4905 16.6549 24.2861 16.8365Z" fill="white"/>
<path d="M32 8.0206V9.23051C31.2867 7.201 30.0099 6.11247 29.1518 5.58084H29.1513C28.6741 4.58921 27.9265 3.7525 26.9947 3.16702C26.0629 2.58154 24.9846 2.27109 23.8841 2.27141H8.11585C7.34834 2.27139 6.58835 2.42255 5.87926 2.71626C5.17017 3.00996 4.52588 3.44046 3.98317 3.98317C3.44046 4.52588 3.00996 5.17017 2.71626 5.87926C2.42255 6.58835 2.27139 7.34834 2.27141 8.11585V23.8837C2.27121 24.9843 2.58169 26.0626 3.16715 26.9945C3.75261 27.9265 4.58925 28.6742 5.58084 29.1518C7.69896 31.9956 10.4099 32 10.4099 32H8.0206C5.89341 32 3.85334 31.155 2.34919 29.6508C0.845041 28.1467 1.17542e-05 26.1066 4.40555e-09 23.9794V8.0206C-3.49053e-05 6.96731 0.2074 5.92433 0.61046 4.95121C1.01352 3.97809 1.60431 3.09389 2.3491 2.3491C3.09389 1.60431 3.97809 1.01352 4.95121 0.61046C5.92433 0.2074 6.96731 -3.49053e-05 8.0206 4.40555e-09H23.9794C25.0327 -3.49053e-05 26.0757 0.2074 27.0488 0.61046C28.0219 1.01352 28.9061 1.60431 29.6509 2.3491C30.3957 3.09389 30.9865 3.97809 31.3895 4.95121C31.7926 5.92433 32 6.96731 32 8.0206Z" fill="url(#paint2_linear_1261_28572)"/>
</g>
<g clip-path="url(#clip1_1261_28572)">
<path fill-rule="evenodd" clip-rule="evenodd" d="M156.522 9.03516H153.741V17.7886L150.55 9.03516H147.343L143.695 18.9998H146.619L147.158 17.3744H150.706L151.245 18.9998H156.522V9.03516ZM147.867 15.2542L148.932 12.0316L150.01 15.2542H147.867Z" fill="url(#paint3_linear_1261_28572)"/>
<path d="M51.8818 20.0195H45.3751L44.3321 23.0866H39.8867L46.1946 5.72266H51.1119L57.4198 23.0866H52.9248L51.8818 20.0195ZM50.789 16.7545L48.6284 10.3976L46.4927 16.7545H50.789Z" fill="white"/>
<path d="M54.8906 16.1613C54.8906 14.7432 55.1555 13.4982 55.6853 12.4263C56.2316 11.3545 56.9684 10.53 57.8956 9.95283C58.8227 9.37567 59.8575 9.0871 60.9999 9.0871C61.9104 9.0871 62.7382 9.27673 63.4833 9.656C64.2449 10.0353 64.8409 10.5465 65.2714 11.1896V4.7832H69.5181V23.0871H65.2714V21.1083C64.874 21.7679 64.3028 22.2956 63.5578 22.6913C62.8293 23.0871 61.9767 23.285 60.9999 23.285C59.8575 23.285 58.8227 22.9965 57.8956 22.4193C56.9684 21.8257 56.2316 20.9929 55.6853 19.921C55.1555 18.8327 54.8906 17.5794 54.8906 16.1613ZM65.2714 16.1861C65.2714 15.1307 64.9733 14.298 64.3773 13.6878C63.7978 13.0777 63.0859 12.7726 62.2416 12.7726C61.3972 12.7726 60.677 13.0777 60.081 13.6878C59.5015 14.2815 59.2117 15.1059 59.2117 16.1613C59.2117 17.2167 59.5015 18.0576 60.081 18.6843C60.677 19.2944 61.3972 19.5995 62.2416 19.5995C63.0859 19.5995 63.7978 19.2944 64.3773 18.6843C64.9733 18.0742 65.2714 17.2414 65.2714 16.1861Z" fill="white"/>
<path d="M74.6324 23.2858C73.4239 23.2858 72.3476 23.0797 71.404 22.6674C70.4602 22.2552 69.7152 21.6945 69.1689 20.9855C68.6225 20.2598 68.3162 19.4519 68.25 18.5614H72.447C72.4967 19.0397 72.7202 19.4271 73.1175 19.724C73.5149 20.0208 74.0033 20.1692 74.5828 20.1692C75.1126 20.1692 75.5182 20.0702 75.7996 19.8724C76.0977 19.658 76.2467 19.3859 76.2467 19.0561C76.2467 18.6604 76.0397 18.3717 75.6258 18.1904C75.2119 17.9925 74.5414 17.7781 73.6142 17.5473C72.6209 17.3164 71.7931 17.0773 71.1308 16.8299C70.4685 16.5661 69.8974 16.1621 69.4172 15.6179C68.9371 15.0573 68.697 14.3069 68.697 13.367C68.697 12.5755 68.9122 11.8582 69.3427 11.2151C69.7897 10.5555 70.4354 10.0361 71.2798 9.65679C72.1407 9.27752 73.1589 9.08789 74.3344 9.08789C76.0729 9.08789 77.4387 9.51663 78.4321 10.3741C79.442 11.2316 80.0215 12.3694 80.1705 13.7875H76.2467C76.1804 13.3093 75.9652 12.9301 75.601 12.6497C75.2533 12.3694 74.7897 12.2292 74.2103 12.2292C73.7136 12.2292 73.3328 12.3282 73.0679 12.5261C72.803 12.7074 72.6706 12.963 72.6706 13.2928C72.6706 13.6886 72.8775 13.9854 73.2914 14.1833C73.7219 14.3812 74.3841 14.5791 75.2782 14.7769C76.3046 15.0407 77.1407 15.3046 77.7864 15.5684C78.4321 15.8158 78.995 16.2281 79.4752 16.8052C79.9719 17.3659 80.2285 18.1244 80.245 19.0809C80.245 19.8888 80.0132 20.6144 79.5497 21.2575C79.1026 21.8842 78.4487 22.3788 77.5878 22.7416C76.7434 23.1044 75.7583 23.2858 74.6324 23.2858Z" fill="white"/>
<path d="M90.8125 11.2145C90.4979 10.6373 90.0426 10.2003 89.4466 9.90349C88.8671 9.59018 88.18 9.43353 87.3853 9.43353C86.0112 9.43353 84.9102 9.887 84.0824 10.794C83.2546 11.6844 82.8406 12.8799 82.8406 14.3805C82.8406 15.9801 83.2711 17.2333 84.1321 18.1403C85.0096 19.0307 86.2098 19.476 87.733 19.476C88.7761 19.476 89.6535 19.2121 90.3655 18.6845C91.094 18.1568 91.6237 17.3982 91.9548 16.4088H86.5658V13.2922H95.8042V17.225C95.4896 18.2804 94.9516 19.2616 94.19 20.1686C93.4449 21.0754 92.493 21.8093 91.334 22.37C90.1751 22.9306 88.8671 23.2109 87.4102 23.2109C85.6884 23.2109 84.1486 22.8399 82.791 22.0979C81.45 21.3393 80.3987 20.2922 79.6371 18.9566C78.892 17.6208 78.5195 16.0955 78.5195 14.3805C78.5195 12.6656 78.892 11.1402 79.6371 9.80456C80.3987 8.45237 81.45 7.40526 82.791 6.6632C84.1321 5.90466 85.6635 5.52539 87.3853 5.52539C89.4715 5.52539 91.2264 6.02834 92.6503 7.03423C94.0907 8.04012 95.0426 9.43353 95.5062 11.2145H90.8125Z" fill="white"/>
<path d="M107.618 15.9642C107.618 16.3599 107.593 16.7723 107.544 17.2009H97.9328C97.999 18.0584 98.2722 18.7181 98.7523 19.1798C99.249 19.625 99.8533 19.8476 100.565 19.8476C101.625 19.8476 102.362 19.4024 102.776 18.512H107.295C107.064 19.4188 106.641 20.2352 106.029 20.9607C105.433 21.6862 104.68 22.2552 103.769 22.6674C102.858 23.0797 101.84 23.2858 100.714 23.2858C99.3567 23.2858 98.1481 22.9973 97.0884 22.4201C96.0288 21.8429 95.201 21.0184 94.605 19.9465C94.0089 18.8747 93.7109 17.6215 93.7109 16.1869C93.7109 14.7522 94.0007 13.499 94.5802 12.4271C95.1761 11.3553 96.004 10.5308 97.0636 9.95362C98.1232 9.37646 99.3401 9.08789 100.714 9.08789C102.055 9.08789 103.247 9.36822 104.29 9.92888C105.333 10.4895 106.145 11.2893 106.724 12.3282C107.32 13.367 107.618 14.579 107.618 15.9642ZM103.272 14.8512C103.272 14.1256 103.024 13.5484 102.527 13.1197C102.031 12.691 101.41 12.4766 100.665 12.4766C99.9527 12.4766 99.3484 12.6827 98.8517 13.095C98.3715 13.5072 98.0735 14.0926 97.9576 14.8512H103.272Z" fill="white"/>
<path d="M114.702 9.13672C116.324 9.13672 117.615 9.6644 118.576 10.7198C119.553 11.7586 120.041 13.1933 120.041 15.0236V23.0872H115.819V15.5926C115.819 14.6691 115.579 13.9518 115.099 13.4406C114.619 12.9294 113.973 12.6738 113.162 12.6738C112.351 12.6738 111.705 12.9294 111.225 13.4406C110.745 13.9518 110.505 14.6691 110.505 15.5926V23.0872H106.258V9.28513H110.505V11.1155C110.935 10.5054 111.514 10.0272 112.243 9.68089C112.971 9.31811 113.791 9.13672 114.702 9.13672Z" fill="white"/>
<path d="M118.547 16.1869C118.547 14.7522 118.837 13.499 119.416 12.4271C120.012 11.3553 120.832 10.5308 121.875 9.95362C122.934 9.37646 124.143 9.08789 125.501 9.08789C127.239 9.08789 128.688 9.54136 129.846 10.4483C131.022 11.3553 131.792 12.6332 132.156 14.2823H127.636C127.255 13.2269 126.519 12.6992 125.426 12.6992C124.648 12.6992 124.027 13.0043 123.563 13.6144C123.1 14.208 122.868 15.0655 122.868 16.1869C122.868 17.3081 123.1 18.1739 123.563 18.784C124.027 19.3776 124.648 19.6745 125.426 19.6745C126.519 19.6745 127.255 19.1468 127.636 18.0915H132.156C131.792 19.7075 131.022 20.9772 129.846 21.9006C128.671 22.8241 127.222 23.2858 125.501 23.2858C124.143 23.2858 122.934 22.9973 121.875 22.4201C120.832 21.8429 120.012 21.0184 119.416 19.9465C118.837 18.8747 118.547 17.6215 118.547 16.1869Z" fill="white"/>
<path d="M144.981 9.28516L136.29 29.6421H131.72L134.899 22.6174L129.262 9.28516H134.004L137.209 17.9177L140.387 9.28516H144.981Z" fill="white"/>
</g>
<defs>
<linearGradient id="paint0_linear_1261_28572" x1="17.2698" y1="6.46835" x2="17.2698" y2="23.709" gradientUnits="userSpaceOnUse">
<stop stop-color="#EB00FF"/>
<stop offset="1" stop-color="#4663FF"/>
</linearGradient>
<linearGradient id="paint1_linear_1261_28572" x1="27.501" y1="2.50024" x2="16.001" y2="35.0002" gradientUnits="userSpaceOnUse">
<stop stop-color="#4663FF"/>
<stop offset="1" stop-color="#EB00FF"/>
</linearGradient>
<linearGradient id="paint2_linear_1261_28572" x1="18.6931" y1="-17.7969" x2="18.6931" y2="33.423" gradientUnits="userSpaceOnUse">
<stop stop-color="#EB00FF"/>
<stop offset="1" stop-color="#4663FF"/>
</linearGradient>
<linearGradient id="paint3_linear_1261_28572" x1="151.188" y1="3.49326" x2="151.188" y2="19.443" gradientUnits="userSpaceOnUse">
<stop stop-color="#EB00FF"/>
<stop offset="1" stop-color="#4663FF"/>
</linearGradient>
<clipPath id="clip0_1261_28572">
<rect width="32" height="32" fill="white"/>
</clipPath>
<clipPath id="clip1_1261_28572">
<rect width="116.633" height="24.9292" fill="white" transform="translate(39.8906 3.53516)"/>
</clipPath>
</defs>
</svg>
