<svg width="438" height="102" viewBox="0 0 438 102" fill="none" xmlns="http://www.w3.org/2000/svg">
<mask id="path-1-outside-1_14809_70" maskUnits="userSpaceOnUse" x="119" y="20" width="315" height="59" fill="black">
<rect fill="white" x="119" y="20" width="315" height="59"/>
<path d="M169.305 28.9004C169.305 30.0853 169.231 32.6772 169.083 36.6763C168.871 42.3468 168.766 46.1343 168.766 48.0386C168.766 50.2391 168.681 53.561 168.512 58.0044C168.364 61.3263 168.29 63.7596 168.29 65.3042C168.29 67.547 168.395 69.8851 168.607 72.3184C168.67 73.0166 168.702 73.5456 168.702 73.9053C168.702 74.8363 168.364 75.598 167.687 76.1904C167.009 76.804 166.11 77.1108 164.989 77.1108C163.952 77.1108 163.127 76.8252 162.513 76.2539C161.921 75.7038 161.625 74.9421 161.625 73.9688C161.625 73.1436 161.73 71.9163 161.942 70.2871C162.09 68.8695 162.206 67.5894 162.291 66.4468C162.46 63.9924 162.672 58.9671 162.926 51.3711C163.18 43.7539 163.338 37.1735 163.402 31.6299C161.667 36.0309 158.546 43.7433 154.039 54.7671L148.707 67.9385C148.284 68.9964 147.797 69.7687 147.247 70.2554C146.697 70.7209 146.062 70.9536 145.343 70.9536C144.475 70.9536 143.745 70.742 143.153 70.3188C142.582 69.8957 142.169 69.1022 141.915 67.9385C141.703 66.8594 141.439 65.3677 141.122 63.4634C140.296 58.491 139.566 54.3757 138.932 51.1172C137.979 46.1872 136.784 39.8607 135.345 32.1377C135.282 32.3916 135.229 32.6455 135.187 32.8994C135.165 33.1322 135.134 33.3543 135.091 33.5659C133.864 40.0194 132.923 45.2879 132.267 49.3716C131.42 54.7036 130.701 58.9777 130.108 62.1938C129.537 65.3888 128.902 68.806 128.204 72.4453L127.855 74.3179C127.686 75.2277 127.252 75.9154 126.554 76.3809C125.855 76.8675 124.988 77.1108 123.951 77.1108C123.02 77.1108 122.258 76.8464 121.666 76.3174C121.074 75.7884 120.777 75.1007 120.777 74.2544C120.777 73.8524 120.851 73.334 121 72.6992C121.169 72.0433 121.444 71.0382 121.825 69.6841C122.713 66.5314 123.539 63.4105 124.3 60.3213C125.062 57.2321 125.887 53.2965 126.776 48.5146C128.067 41.6169 129.241 34.8989 130.299 28.3608C130.764 25.2716 132.605 23.7271 135.821 23.7271C136.816 23.7271 137.609 23.9386 138.202 24.3618C138.794 24.785 139.27 25.4832 139.63 26.4565C139.99 27.4087 140.328 28.7629 140.646 30.519C142.783 42.6219 144.592 53.0744 146.073 61.8765L159.625 27.6309C160.112 26.3825 160.778 25.4198 161.625 24.7427C162.492 24.0656 163.624 23.7271 165.021 23.7271C166.332 23.7271 167.369 24.182 168.131 25.0918C168.914 26.0016 169.305 27.2712 169.305 28.9004ZM209.994 41.3735C209.994 41.8179 209.888 42.4632 209.676 43.3096C209.486 44.1559 209.369 44.6532 209.327 44.8013C208.946 46.3459 208.724 47.3086 208.661 47.6895C208.111 50.3766 207.476 54.2381 206.756 59.2739C206.058 64.3097 205.709 67.5894 205.709 69.1128C205.709 69.7899 205.772 70.6574 205.899 71.7153C206.026 72.731 206.09 73.5033 206.09 74.0322C206.09 74.9421 205.804 75.6826 205.233 76.2539C204.683 76.8252 203.942 77.1108 203.011 77.1108C201.784 77.1108 200.885 76.6877 200.313 75.8413C199.763 74.9738 199.488 73.8312 199.488 72.4136C199.488 71.1864 199.573 69.7899 199.742 68.2241C198.176 71.0594 196.336 73.3022 194.22 74.9526C192.104 76.603 189.977 77.4282 187.84 77.4282C185.534 77.4282 183.556 76.8569 181.905 75.7144C180.276 74.5718 179.028 72.8896 178.16 70.668C177.293 68.4251 176.859 65.7062 176.859 62.5112C176.859 58.2371 177.684 54.2275 179.334 50.4824C180.985 46.7373 183.207 43.7539 186 41.5322C188.814 39.2894 191.871 38.168 195.172 38.168C196.865 38.168 198.346 38.4959 199.615 39.1519C200.906 39.7866 202.027 40.7599 202.979 42.0718C203.149 40.8657 203.561 39.9559 204.217 39.3423C204.894 38.7287 205.794 38.4219 206.915 38.4219C207.761 38.4219 208.481 38.7075 209.073 39.2788C209.687 39.8501 209.994 40.5483 209.994 41.3735ZM188.348 72.0645C189.766 72.0645 191.321 71.3662 193.014 69.9697C194.706 68.5521 196.293 66.6795 197.774 64.3521C199.277 62.0246 200.462 59.5596 201.329 56.957L201.551 55.4019C202.038 51.8049 202.387 48.7262 202.599 46.166C202.408 46.2295 202.207 46.2612 201.996 46.2612C201.445 46.2612 200.927 46.0391 200.44 45.5947C199.615 44.8118 198.811 44.2194 198.028 43.8174C197.267 43.3942 196.367 43.1826 195.331 43.1826C193.172 43.1826 191.099 44.1136 189.11 45.9756C187.142 47.8376 185.555 50.292 184.349 53.3389C183.143 56.3857 182.54 59.5701 182.54 62.8921C182.54 66.0448 183.016 68.3617 183.968 69.8428C184.942 71.3239 186.402 72.0645 188.348 72.0645ZM240.208 38.5806C240.97 38.5806 241.563 38.7181 241.986 38.9932C242.409 39.2682 242.621 39.7549 242.621 40.4531C242.621 41.5322 242.155 42.3892 241.224 43.0239C240.314 43.6587 239.214 43.9761 237.923 43.9761L234.464 44.0078C233.935 44.029 233.141 44.0396 232.083 44.0396L231.068 51.3394C230.2 57.5812 229.65 62.1092 229.417 64.9233C229.185 67.7375 229.058 70.1284 229.037 72.0962C229.037 73.0695 229.005 73.8206 228.941 74.3496C228.857 75.196 228.486 75.8625 227.831 76.3491C227.175 76.8569 226.36 77.1108 225.387 77.1108C224.413 77.1108 223.588 76.8252 222.911 76.2539C222.255 75.6826 221.927 75.0055 221.927 74.2227C221.927 73.9053 221.97 73.5138 222.054 73.0483C222.139 72.5828 222.223 72.1808 222.308 71.8423C222.393 71.4826 222.456 71.1969 222.499 70.9854C223.006 68.8906 223.398 66.9546 223.673 65.1772C224.033 62.8921 224.562 58.9777 225.26 53.4341L226.371 44.3252C225.376 44.431 224.54 44.5368 223.863 44.6426C222.382 44.833 221.282 44.9282 220.562 44.9282C219.483 44.9282 218.605 44.7166 217.928 44.2935C217.272 43.8491 216.944 43.1403 216.944 42.167C216.944 41.0879 217.241 40.2415 217.833 39.6279C218.425 39.0143 219.24 38.7075 220.277 38.7075C221.017 38.7075 221.811 38.7604 222.657 38.8662C223.906 39.0355 225.323 39.1307 226.91 39.1519C227.291 35.2798 227.503 32.4128 227.545 30.5508C227.587 29.6833 227.619 29.1755 227.64 29.0273C227.746 28.2021 228.116 27.5462 228.751 27.0596C229.407 26.5729 230.253 26.3296 231.29 26.3296C232.221 26.3296 232.993 26.6047 233.607 27.1548C234.242 27.7049 234.559 28.4032 234.559 29.2495C234.559 29.9478 234.295 31.45 233.766 33.7563C233.512 34.9412 233.385 35.5231 233.385 35.502L232.813 38.9297L233.766 38.8662C234.104 38.8451 234.982 38.7922 236.4 38.7075C237.839 38.6229 239.108 38.5806 240.208 38.5806ZM267.503 38.041C269.535 38.041 271.323 38.5277 272.867 39.501C274.433 40.4531 275.639 41.8179 276.485 43.5952C277.353 45.3514 277.787 47.4144 277.787 49.7842C277.787 50.3555 277.713 51.223 277.564 52.3867C277.416 53.5505 277.236 54.8306 277.025 56.2271L276.136 62.7651C275.417 68.5203 275.057 72.2231 275.057 73.8735C275.057 74.8468 274.687 75.6297 273.946 76.2222C273.206 76.8146 272.254 77.1108 271.09 77.1108C270.222 77.1108 269.482 76.8252 268.868 76.2539C268.255 75.6826 267.948 74.995 267.948 74.1909C267.948 73.8735 268.043 73.3022 268.233 72.4771C268.424 71.6307 268.625 70.7949 268.836 69.9697L269.376 67.7798C269.926 65.1984 270.529 61.9082 271.185 57.9092C271.841 53.889 272.169 51.1595 272.169 49.7207C272.169 47.626 271.735 46.0602 270.868 45.0234C270.021 43.9655 268.805 43.4365 267.218 43.4365C265.356 43.4365 263.526 44.1136 261.727 45.4678C259.929 46.8008 258.299 48.6733 256.839 51.0854C255.401 53.4976 254.247 56.2376 253.38 59.3057C252.809 64.3626 252.438 68.6156 252.269 72.0645C252.227 72.9954 252.174 73.7572 252.11 74.3496C252.026 75.196 251.645 75.8625 250.968 76.3491C250.312 76.8569 249.476 77.1108 248.46 77.1108C247.572 77.1108 246.81 76.8252 246.175 76.2539C245.541 75.6826 245.223 75.0161 245.223 74.2544C245.223 73.7889 245.445 72.4559 245.89 70.2554C246.334 68.0549 246.588 66.8171 246.651 66.542C246.842 65.6745 246.937 65.2196 246.937 65.1772C247.339 62.5112 247.889 58.3853 248.587 52.7993C249.667 44.1877 250.365 38.0199 250.682 34.2959C251.021 30.5508 251.222 27.7155 251.285 25.79C251.327 25.0283 251.359 24.5628 251.38 24.3936C251.486 23.5684 251.856 22.9124 252.491 22.4258C253.147 21.9391 253.993 21.6958 255.03 21.6958C255.961 21.6958 256.734 21.9814 257.347 22.5527C257.982 23.1029 258.299 23.8011 258.299 24.6475C258.299 24.9437 258.225 25.3986 258.077 26.0122C257.95 26.6258 257.866 27.0067 257.823 27.1548C257.421 28.784 257.157 30.0218 257.03 30.8682C256.332 35.248 255.538 41.1196 254.649 48.4829C256.554 45.0975 258.553 42.5161 260.648 40.7388C262.743 38.9403 265.028 38.041 267.503 38.041ZM407.342 50.1968C408.083 55.5076 408.749 60.1943 409.342 64.2568C409.448 64.9551 409.627 66.2669 409.881 68.1924C410.156 70.0967 410.347 71.4826 410.453 72.3501C410.558 73.2176 410.611 73.7995 410.611 74.0957C410.611 75.0479 410.294 75.7884 409.659 76.3174C409.046 76.8464 408.199 77.1108 407.12 77.1108C405.935 77.1108 405.004 76.7935 404.327 76.1587C403.65 75.5239 403.312 74.5929 403.312 73.3657C403.312 71.6942 403.005 67.5153 402.391 60.8291L400.995 60.8608C399.344 60.9032 397.789 60.9243 396.329 60.9243C394.34 60.9243 391.632 60.9772 388.204 61.083L385.729 61.1465C383.211 67.5576 381.497 72.1174 380.587 74.8257C380.058 76.3491 378.82 77.1108 376.874 77.1108C375.858 77.1108 375.022 76.7935 374.366 76.1587C373.731 75.5451 373.414 74.7199 373.414 73.6831C373.414 73.3022 373.499 72.9214 373.668 72.5405C373.858 72.1597 374.176 71.5778 374.62 70.7949C375.466 69.3561 376.101 68.1712 376.524 67.2402L379.19 61.21C378.281 61.1465 377.529 60.8926 376.937 60.4482C376.345 59.9827 376.048 59.3268 376.048 58.4805C376.048 57.4648 376.313 56.6925 376.842 56.1636C377.371 55.6346 378.069 55.3701 378.937 55.3701L381.634 55.4336L383.792 50.2285L384.872 47.626C386.861 42.8229 388.437 39.0672 389.601 36.3589C390.785 33.6294 392.129 30.6566 393.631 27.4404C395.155 24.182 397.398 22.5527 400.36 22.5527C401.481 22.5527 402.412 22.8807 403.153 23.5366C403.915 24.1925 404.348 25.1024 404.454 26.2661C405.025 32.2752 405.988 40.2521 407.342 50.1968ZM393.219 55.6875C395.652 55.6875 398.54 55.6663 401.883 55.624C401.883 55.4548 401.862 55.2008 401.82 54.8623C401.227 48.5781 400.349 39.7655 399.186 28.4243C398.043 30.8999 396.646 34.0737 394.996 37.9458C393.367 41.7967 391.769 45.7111 390.204 49.689C389.738 50.8315 389.135 52.3761 388.395 54.3228L387.887 55.624C390.257 55.6663 392.034 55.6875 393.219 55.6875ZM422.481 77.1108C421.424 77.1108 420.577 76.804 419.942 76.1904C419.308 75.5768 418.99 74.7834 418.99 73.8101C418.99 73.408 419.212 72.1808 419.657 70.1284C420.292 67.145 420.852 64.3097 421.339 61.6226C421.847 58.9354 422.333 55.7404 422.799 52.0376C423.857 43.7856 424.566 37.9246 424.925 34.4546C425.306 30.9634 425.497 28.5724 425.497 27.2817C425.497 26.1603 425.867 25.2928 426.607 24.6792C427.348 24.0444 428.364 23.7271 429.654 23.7271C430.564 23.7271 431.305 24.0127 431.876 24.584C432.447 25.1553 432.733 25.8535 432.733 26.6787C432.733 26.9961 432.669 27.4722 432.542 28.1069C432.437 28.7417 432.299 29.4717 432.13 30.2969C431.559 33.0052 430.987 35.978 430.416 39.2153C429.866 42.4526 429.273 46.6315 428.639 51.752C427.983 56.957 427.433 61.5908 426.988 65.6533C426.565 69.7158 426.311 72.4665 426.227 73.9053C426.184 74.8786 425.825 75.6509 425.147 76.2222C424.492 76.8146 423.603 77.1108 422.481 77.1108Z"/>
<path d="M297.147 77.4282C294.65 77.4282 292.439 76.8464 290.514 75.6826C288.588 74.5189 287.086 72.8579 286.007 70.6997C284.949 68.5203 284.42 65.9919 284.42 63.1143C284.42 59.348 285.16 55.5288 286.642 51.6567C288.123 47.7847 290.175 44.5791 292.799 42.04C295.444 39.4798 298.395 38.1997 301.654 38.1997C304.024 38.1997 306.161 38.972 308.065 40.5166C309.969 42.04 311.461 44.2617 312.54 47.1816C313.64 50.1016 314.19 53.5505 314.19 57.5283C314.19 61.4215 313.45 64.881 311.969 67.9067C310.488 70.9113 308.446 73.2493 305.843 74.9209C303.262 76.5924 300.363 77.4282 297.147 77.4282ZM308.255 56.2271C308.255 53.5399 307.959 51.2124 307.367 49.2446C306.795 47.2769 305.97 45.7746 304.891 44.7378C303.833 43.701 302.585 43.1826 301.146 43.1826C299.009 43.1826 297.136 44.2511 295.528 46.3882C293.941 48.5041 292.735 51.1383 291.91 54.291C291.085 57.4437 290.672 60.4906 290.672 63.4316C290.672 66.4997 291.159 68.8271 292.132 70.4141C293.106 71.9798 294.661 72.7627 296.798 72.7627C298.914 72.7627 300.839 72.0856 302.574 70.7314C304.33 69.3561 305.716 67.4201 306.732 64.9233C307.748 62.4054 308.255 59.5067 308.255 56.2271ZM333.36 77.4282C330.906 77.4282 328.589 76.9733 326.41 76.0635C324.251 75.1748 322.516 74.0216 321.205 72.604C319.914 71.1864 319.269 69.7581 319.269 68.3193C319.269 67.4307 319.522 66.7113 320.03 66.1611C320.538 65.611 321.194 65.3359 321.998 65.3359C322.781 65.3359 323.511 65.6216 324.188 66.1929C324.865 66.7642 325.542 67.5153 326.219 68.4463C326.96 69.4831 327.7 70.266 328.441 70.7949C329.203 71.3027 329.996 71.6413 330.821 71.8105C331.668 71.9587 332.736 72.0327 334.027 72.0327C335.402 72.0327 336.682 71.7894 337.867 71.3027C339.052 70.8161 339.994 70.1284 340.692 69.2397C341.411 68.3299 341.771 67.2826 341.771 66.0977C341.771 65.0397 341.432 64.1299 340.755 63.3682C340.099 62.6064 339.211 61.9399 338.089 61.3687C336.968 60.7974 335.508 60.1838 333.709 59.5278C330.599 58.3853 328.102 57.0417 326.219 55.4971C324.357 53.9525 323.426 51.9001 323.426 49.3398C323.426 47.224 323.998 45.3197 325.14 43.627C326.304 41.9342 327.891 40.6012 329.901 39.6279C331.932 38.6546 334.196 38.168 336.693 38.168C338.745 38.168 340.702 38.4854 342.564 39.1201C344.426 39.7337 345.918 40.5483 347.04 41.564C348.161 42.5796 348.722 43.6481 348.722 44.7695C348.722 45.6582 348.436 46.3882 347.865 46.9595C347.293 47.5308 346.563 47.8164 345.675 47.8164C344.659 47.8164 343.527 47.2134 342.279 46.0073C341.411 45.1821 340.501 44.5368 339.549 44.0713C338.618 43.5846 337.444 43.3413 336.026 43.3413C334.672 43.3413 333.466 43.5635 332.408 44.0078C331.35 44.431 330.525 45.0234 329.933 45.7852C329.34 46.5257 329.044 47.3721 329.044 48.3242C329.044 49.5514 329.7 50.62 331.012 51.5298C332.345 52.4185 334.175 53.3283 336.502 54.2593C338.936 55.2326 340.914 56.1636 342.438 57.0522C343.982 57.9409 345.252 59.0729 346.246 60.4482C347.262 61.8024 347.77 63.474 347.77 65.4629C347.77 67.6211 347.135 69.6206 345.865 71.4614C344.617 73.2811 342.892 74.7305 340.692 75.8096C338.491 76.8887 336.048 77.4282 333.36 77.4282Z"/>
</mask>
<path d="M169.305 28.9004C169.305 30.0853 169.231 32.6772 169.083 36.6763C168.871 42.3468 168.766 46.1343 168.766 48.0386C168.766 50.2391 168.681 53.561 168.512 58.0044C168.364 61.3263 168.29 63.7596 168.29 65.3042C168.29 67.547 168.395 69.8851 168.607 72.3184C168.67 73.0166 168.702 73.5456 168.702 73.9053C168.702 74.8363 168.364 75.598 167.687 76.1904C167.009 76.804 166.11 77.1108 164.989 77.1108C163.952 77.1108 163.127 76.8252 162.513 76.2539C161.921 75.7038 161.625 74.9421 161.625 73.9688C161.625 73.1436 161.73 71.9163 161.942 70.2871C162.09 68.8695 162.206 67.5894 162.291 66.4468C162.46 63.9924 162.672 58.9671 162.926 51.3711C163.18 43.7539 163.338 37.1735 163.402 31.6299C161.667 36.0309 158.546 43.7433 154.039 54.7671L148.707 67.9385C148.284 68.9964 147.797 69.7687 147.247 70.2554C146.697 70.7209 146.062 70.9536 145.343 70.9536C144.475 70.9536 143.745 70.742 143.153 70.3188C142.582 69.8957 142.169 69.1022 141.915 67.9385C141.703 66.8594 141.439 65.3677 141.122 63.4634C140.296 58.491 139.566 54.3757 138.932 51.1172C137.979 46.1872 136.784 39.8607 135.345 32.1377C135.282 32.3916 135.229 32.6455 135.187 32.8994C135.165 33.1322 135.134 33.3543 135.091 33.5659C133.864 40.0194 132.923 45.2879 132.267 49.3716C131.42 54.7036 130.701 58.9777 130.108 62.1938C129.537 65.3888 128.902 68.806 128.204 72.4453L127.855 74.3179C127.686 75.2277 127.252 75.9154 126.554 76.3809C125.855 76.8675 124.988 77.1108 123.951 77.1108C123.02 77.1108 122.258 76.8464 121.666 76.3174C121.074 75.7884 120.777 75.1007 120.777 74.2544C120.777 73.8524 120.851 73.334 121 72.6992C121.169 72.0433 121.444 71.0382 121.825 69.6841C122.713 66.5314 123.539 63.4105 124.3 60.3213C125.062 57.2321 125.887 53.2965 126.776 48.5146C128.067 41.6169 129.241 34.8989 130.299 28.3608C130.764 25.2716 132.605 23.7271 135.821 23.7271C136.816 23.7271 137.609 23.9386 138.202 24.3618C138.794 24.785 139.27 25.4832 139.63 26.4565C139.99 27.4087 140.328 28.7629 140.646 30.519C142.783 42.6219 144.592 53.0744 146.073 61.8765L159.625 27.6309C160.112 26.3825 160.778 25.4198 161.625 24.7427C162.492 24.0656 163.624 23.7271 165.021 23.7271C166.332 23.7271 167.369 24.182 168.131 25.0918C168.914 26.0016 169.305 27.2712 169.305 28.9004ZM209.994 41.3735C209.994 41.8179 209.888 42.4632 209.676 43.3096C209.486 44.1559 209.369 44.6532 209.327 44.8013C208.946 46.3459 208.724 47.3086 208.661 47.6895C208.111 50.3766 207.476 54.2381 206.756 59.2739C206.058 64.3097 205.709 67.5894 205.709 69.1128C205.709 69.7899 205.772 70.6574 205.899 71.7153C206.026 72.731 206.09 73.5033 206.09 74.0322C206.09 74.9421 205.804 75.6826 205.233 76.2539C204.683 76.8252 203.942 77.1108 203.011 77.1108C201.784 77.1108 200.885 76.6877 200.313 75.8413C199.763 74.9738 199.488 73.8312 199.488 72.4136C199.488 71.1864 199.573 69.7899 199.742 68.2241C198.176 71.0594 196.336 73.3022 194.22 74.9526C192.104 76.603 189.977 77.4282 187.84 77.4282C185.534 77.4282 183.556 76.8569 181.905 75.7144C180.276 74.5718 179.028 72.8896 178.16 70.668C177.293 68.4251 176.859 65.7062 176.859 62.5112C176.859 58.2371 177.684 54.2275 179.334 50.4824C180.985 46.7373 183.207 43.7539 186 41.5322C188.814 39.2894 191.871 38.168 195.172 38.168C196.865 38.168 198.346 38.4959 199.615 39.1519C200.906 39.7866 202.027 40.7599 202.979 42.0718C203.149 40.8657 203.561 39.9559 204.217 39.3423C204.894 38.7287 205.794 38.4219 206.915 38.4219C207.761 38.4219 208.481 38.7075 209.073 39.2788C209.687 39.8501 209.994 40.5483 209.994 41.3735ZM188.348 72.0645C189.766 72.0645 191.321 71.3662 193.014 69.9697C194.706 68.5521 196.293 66.6795 197.774 64.3521C199.277 62.0246 200.462 59.5596 201.329 56.957L201.551 55.4019C202.038 51.8049 202.387 48.7262 202.599 46.166C202.408 46.2295 202.207 46.2612 201.996 46.2612C201.445 46.2612 200.927 46.0391 200.44 45.5947C199.615 44.8118 198.811 44.2194 198.028 43.8174C197.267 43.3942 196.367 43.1826 195.331 43.1826C193.172 43.1826 191.099 44.1136 189.11 45.9756C187.142 47.8376 185.555 50.292 184.349 53.3389C183.143 56.3857 182.54 59.5701 182.54 62.8921C182.54 66.0448 183.016 68.3617 183.968 69.8428C184.942 71.3239 186.402 72.0645 188.348 72.0645ZM240.208 38.5806C240.97 38.5806 241.563 38.7181 241.986 38.9932C242.409 39.2682 242.621 39.7549 242.621 40.4531C242.621 41.5322 242.155 42.3892 241.224 43.0239C240.314 43.6587 239.214 43.9761 237.923 43.9761L234.464 44.0078C233.935 44.029 233.141 44.0396 232.083 44.0396L231.068 51.3394C230.2 57.5812 229.65 62.1092 229.417 64.9233C229.185 67.7375 229.058 70.1284 229.037 72.0962C229.037 73.0695 229.005 73.8206 228.941 74.3496C228.857 75.196 228.486 75.8625 227.831 76.3491C227.175 76.8569 226.36 77.1108 225.387 77.1108C224.413 77.1108 223.588 76.8252 222.911 76.2539C222.255 75.6826 221.927 75.0055 221.927 74.2227C221.927 73.9053 221.97 73.5138 222.054 73.0483C222.139 72.5828 222.223 72.1808 222.308 71.8423C222.393 71.4826 222.456 71.1969 222.499 70.9854C223.006 68.8906 223.398 66.9546 223.673 65.1772C224.033 62.8921 224.562 58.9777 225.26 53.4341L226.371 44.3252C225.376 44.431 224.54 44.5368 223.863 44.6426C222.382 44.833 221.282 44.9282 220.562 44.9282C219.483 44.9282 218.605 44.7166 217.928 44.2935C217.272 43.8491 216.944 43.1403 216.944 42.167C216.944 41.0879 217.241 40.2415 217.833 39.6279C218.425 39.0143 219.24 38.7075 220.277 38.7075C221.017 38.7075 221.811 38.7604 222.657 38.8662C223.906 39.0355 225.323 39.1307 226.91 39.1519C227.291 35.2798 227.503 32.4128 227.545 30.5508C227.587 29.6833 227.619 29.1755 227.64 29.0273C227.746 28.2021 228.116 27.5462 228.751 27.0596C229.407 26.5729 230.253 26.3296 231.29 26.3296C232.221 26.3296 232.993 26.6047 233.607 27.1548C234.242 27.7049 234.559 28.4032 234.559 29.2495C234.559 29.9478 234.295 31.45 233.766 33.7563C233.512 34.9412 233.385 35.5231 233.385 35.502L232.813 38.9297L233.766 38.8662C234.104 38.8451 234.982 38.7922 236.4 38.7075C237.839 38.6229 239.108 38.5806 240.208 38.5806ZM267.503 38.041C269.535 38.041 271.323 38.5277 272.867 39.501C274.433 40.4531 275.639 41.8179 276.485 43.5952C277.353 45.3514 277.787 47.4144 277.787 49.7842C277.787 50.3555 277.713 51.223 277.564 52.3867C277.416 53.5505 277.236 54.8306 277.025 56.2271L276.136 62.7651C275.417 68.5203 275.057 72.2231 275.057 73.8735C275.057 74.8468 274.687 75.6297 273.946 76.2222C273.206 76.8146 272.254 77.1108 271.09 77.1108C270.222 77.1108 269.482 76.8252 268.868 76.2539C268.255 75.6826 267.948 74.995 267.948 74.1909C267.948 73.8735 268.043 73.3022 268.233 72.4771C268.424 71.6307 268.625 70.7949 268.836 69.9697L269.376 67.7798C269.926 65.1984 270.529 61.9082 271.185 57.9092C271.841 53.889 272.169 51.1595 272.169 49.7207C272.169 47.626 271.735 46.0602 270.868 45.0234C270.021 43.9655 268.805 43.4365 267.218 43.4365C265.356 43.4365 263.526 44.1136 261.727 45.4678C259.929 46.8008 258.299 48.6733 256.839 51.0854C255.401 53.4976 254.247 56.2376 253.38 59.3057C252.809 64.3626 252.438 68.6156 252.269 72.0645C252.227 72.9954 252.174 73.7572 252.11 74.3496C252.026 75.196 251.645 75.8625 250.968 76.3491C250.312 76.8569 249.476 77.1108 248.46 77.1108C247.572 77.1108 246.81 76.8252 246.175 76.2539C245.541 75.6826 245.223 75.0161 245.223 74.2544C245.223 73.7889 245.445 72.4559 245.89 70.2554C246.334 68.0549 246.588 66.8171 246.651 66.542C246.842 65.6745 246.937 65.2196 246.937 65.1772C247.339 62.5112 247.889 58.3853 248.587 52.7993C249.667 44.1877 250.365 38.0199 250.682 34.2959C251.021 30.5508 251.222 27.7155 251.285 25.79C251.327 25.0283 251.359 24.5628 251.38 24.3936C251.486 23.5684 251.856 22.9124 252.491 22.4258C253.147 21.9391 253.993 21.6958 255.03 21.6958C255.961 21.6958 256.734 21.9814 257.347 22.5527C257.982 23.1029 258.299 23.8011 258.299 24.6475C258.299 24.9437 258.225 25.3986 258.077 26.0122C257.95 26.6258 257.866 27.0067 257.823 27.1548C257.421 28.784 257.157 30.0218 257.03 30.8682C256.332 35.248 255.538 41.1196 254.649 48.4829C256.554 45.0975 258.553 42.5161 260.648 40.7388C262.743 38.9403 265.028 38.041 267.503 38.041ZM407.342 50.1968C408.083 55.5076 408.749 60.1943 409.342 64.2568C409.448 64.9551 409.627 66.2669 409.881 68.1924C410.156 70.0967 410.347 71.4826 410.453 72.3501C410.558 73.2176 410.611 73.7995 410.611 74.0957C410.611 75.0479 410.294 75.7884 409.659 76.3174C409.046 76.8464 408.199 77.1108 407.12 77.1108C405.935 77.1108 405.004 76.7935 404.327 76.1587C403.65 75.5239 403.312 74.5929 403.312 73.3657C403.312 71.6942 403.005 67.5153 402.391 60.8291L400.995 60.8608C399.344 60.9032 397.789 60.9243 396.329 60.9243C394.34 60.9243 391.632 60.9772 388.204 61.083L385.729 61.1465C383.211 67.5576 381.497 72.1174 380.587 74.8257C380.058 76.3491 378.82 77.1108 376.874 77.1108C375.858 77.1108 375.022 76.7935 374.366 76.1587C373.731 75.5451 373.414 74.7199 373.414 73.6831C373.414 73.3022 373.499 72.9214 373.668 72.5405C373.858 72.1597 374.176 71.5778 374.62 70.7949C375.466 69.3561 376.101 68.1712 376.524 67.2402L379.19 61.21C378.281 61.1465 377.529 60.8926 376.937 60.4482C376.345 59.9827 376.048 59.3268 376.048 58.4805C376.048 57.4648 376.313 56.6925 376.842 56.1636C377.371 55.6346 378.069 55.3701 378.937 55.3701L381.634 55.4336L383.792 50.2285L384.872 47.626C386.861 42.8229 388.437 39.0672 389.601 36.3589C390.785 33.6294 392.129 30.6566 393.631 27.4404C395.155 24.182 397.398 22.5527 400.36 22.5527C401.481 22.5527 402.412 22.8807 403.153 23.5366C403.915 24.1925 404.348 25.1024 404.454 26.2661C405.025 32.2752 405.988 40.2521 407.342 50.1968ZM393.219 55.6875C395.652 55.6875 398.54 55.6663 401.883 55.624C401.883 55.4548 401.862 55.2008 401.82 54.8623C401.227 48.5781 400.349 39.7655 399.186 28.4243C398.043 30.8999 396.646 34.0737 394.996 37.9458C393.367 41.7967 391.769 45.7111 390.204 49.689C389.738 50.8315 389.135 52.3761 388.395 54.3228L387.887 55.624C390.257 55.6663 392.034 55.6875 393.219 55.6875ZM422.481 77.1108C421.424 77.1108 420.577 76.804 419.942 76.1904C419.308 75.5768 418.99 74.7834 418.99 73.8101C418.99 73.408 419.212 72.1808 419.657 70.1284C420.292 67.145 420.852 64.3097 421.339 61.6226C421.847 58.9354 422.333 55.7404 422.799 52.0376C423.857 43.7856 424.566 37.9246 424.925 34.4546C425.306 30.9634 425.497 28.5724 425.497 27.2817C425.497 26.1603 425.867 25.2928 426.607 24.6792C427.348 24.0444 428.364 23.7271 429.654 23.7271C430.564 23.7271 431.305 24.0127 431.876 24.584C432.447 25.1553 432.733 25.8535 432.733 26.6787C432.733 26.9961 432.669 27.4722 432.542 28.1069C432.437 28.7417 432.299 29.4717 432.13 30.2969C431.559 33.0052 430.987 35.978 430.416 39.2153C429.866 42.4526 429.273 46.6315 428.639 51.752C427.983 56.957 427.433 61.5908 426.988 65.6533C426.565 69.7158 426.311 72.4665 426.227 73.9053C426.184 74.8786 425.825 75.6509 425.147 76.2222C424.492 76.8146 423.603 77.1108 422.481 77.1108Z" fill="#339AF0"/>
<path d="M297.147 77.4282C294.65 77.4282 292.439 76.8464 290.514 75.6826C288.588 74.5189 287.086 72.8579 286.007 70.6997C284.949 68.5203 284.42 65.9919 284.42 63.1143C284.42 59.348 285.16 55.5288 286.642 51.6567C288.123 47.7847 290.175 44.5791 292.799 42.04C295.444 39.4798 298.395 38.1997 301.654 38.1997C304.024 38.1997 306.161 38.972 308.065 40.5166C309.969 42.04 311.461 44.2617 312.54 47.1816C313.64 50.1016 314.19 53.5505 314.19 57.5283C314.19 61.4215 313.45 64.881 311.969 67.9067C310.488 70.9113 308.446 73.2493 305.843 74.9209C303.262 76.5924 300.363 77.4282 297.147 77.4282ZM308.255 56.2271C308.255 53.5399 307.959 51.2124 307.367 49.2446C306.795 47.2769 305.97 45.7746 304.891 44.7378C303.833 43.701 302.585 43.1826 301.146 43.1826C299.009 43.1826 297.136 44.2511 295.528 46.3882C293.941 48.5041 292.735 51.1383 291.91 54.291C291.085 57.4437 290.672 60.4906 290.672 63.4316C290.672 66.4997 291.159 68.8271 292.132 70.4141C293.106 71.9798 294.661 72.7627 296.798 72.7627C298.914 72.7627 300.839 72.0856 302.574 70.7314C304.33 69.3561 305.716 67.4201 306.732 64.9233C307.748 62.4054 308.255 59.5067 308.255 56.2271ZM333.36 77.4282C330.906 77.4282 328.589 76.9733 326.41 76.0635C324.251 75.1748 322.516 74.0216 321.205 72.604C319.914 71.1864 319.269 69.7581 319.269 68.3193C319.269 67.4307 319.522 66.7113 320.03 66.1611C320.538 65.611 321.194 65.3359 321.998 65.3359C322.781 65.3359 323.511 65.6216 324.188 66.1929C324.865 66.7642 325.542 67.5153 326.219 68.4463C326.96 69.4831 327.7 70.266 328.441 70.7949C329.203 71.3027 329.996 71.6413 330.821 71.8105C331.668 71.9587 332.736 72.0327 334.027 72.0327C335.402 72.0327 336.682 71.7894 337.867 71.3027C339.052 70.8161 339.994 70.1284 340.692 69.2397C341.411 68.3299 341.771 67.2826 341.771 66.0977C341.771 65.0397 341.432 64.1299 340.755 63.3682C340.099 62.6064 339.211 61.9399 338.089 61.3687C336.968 60.7974 335.508 60.1838 333.709 59.5278C330.599 58.3853 328.102 57.0417 326.219 55.4971C324.357 53.9525 323.426 51.9001 323.426 49.3398C323.426 47.224 323.998 45.3197 325.14 43.627C326.304 41.9342 327.891 40.6012 329.901 39.6279C331.932 38.6546 334.196 38.168 336.693 38.168C338.745 38.168 340.702 38.4854 342.564 39.1201C344.426 39.7337 345.918 40.5483 347.04 41.564C348.161 42.5796 348.722 43.6481 348.722 44.7695C348.722 45.6582 348.436 46.3882 347.865 46.9595C347.293 47.5308 346.563 47.8164 345.675 47.8164C344.659 47.8164 343.527 47.2134 342.279 46.0073C341.411 45.1821 340.501 44.5368 339.549 44.0713C338.618 43.5846 337.444 43.3413 336.026 43.3413C334.672 43.3413 333.466 43.5635 332.408 44.0078C331.35 44.431 330.525 45.0234 329.933 45.7852C329.34 46.5257 329.044 47.3721 329.044 48.3242C329.044 49.5514 329.7 50.62 331.012 51.5298C332.345 52.4185 334.175 53.3283 336.502 54.2593C338.936 55.2326 340.914 56.1636 342.438 57.0522C343.982 57.9409 345.252 59.0729 346.246 60.4482C347.262 61.8024 347.77 63.474 347.77 65.4629C347.77 67.6211 347.135 69.6206 345.865 71.4614C344.617 73.2811 342.892 74.7305 340.692 75.8096C338.491 76.8887 336.048 77.4282 333.36 77.4282Z" fill="#967ADC"/>
<path d="M169.083 36.6763L170.082 36.7136L170.082 36.7133L169.083 36.6763ZM168.512 58.0044L169.511 58.0489L169.511 58.0425L168.512 58.0044ZM168.607 72.3184L167.611 72.405L167.611 72.4089L168.607 72.3184ZM167.687 76.1904L167.028 75.4379L167.021 75.4436L167.015 75.4494L167.687 76.1904ZM162.513 76.2539L163.195 75.522L163.194 75.5211L162.513 76.2539ZM161.942 70.2871L162.934 70.4159L162.935 70.4035L162.936 70.391L161.942 70.2871ZM162.291 66.4468L163.288 66.5206L163.289 66.5156L162.291 66.4468ZM162.926 51.3711L163.925 51.4045L163.925 51.4044L162.926 51.3711ZM163.402 31.6299L164.402 31.6413L162.472 31.2631L163.402 31.6299ZM154.039 54.7671L153.113 54.3887L153.112 54.3919L154.039 54.7671ZM148.707 67.9385L147.78 67.5632L147.779 67.5671L148.707 67.9385ZM147.247 70.2554L147.893 71.0188L147.901 71.0117L147.91 71.0044L147.247 70.2554ZM143.153 70.3188L142.558 71.1224L142.565 71.1276L142.572 71.1326L143.153 70.3188ZM141.915 67.9385L140.934 68.1309L140.936 68.1413L140.938 68.1516L141.915 67.9385ZM141.122 63.4634L140.135 63.6271L140.135 63.6278L141.122 63.4634ZM138.932 51.1172L137.95 51.3068L137.95 51.3084L138.932 51.1172ZM135.345 32.1377L136.328 31.9545L134.375 31.8952L135.345 32.1377ZM135.187 32.8994L134.2 32.735L134.194 32.7718L134.191 32.8089L135.187 32.8994ZM135.091 33.5659L134.111 33.3698L134.109 33.3791L135.091 33.5659ZM132.267 49.3716L131.279 49.213L131.279 49.2148L132.267 49.3716ZM130.108 62.1938L129.125 62.0127L129.124 62.0178L130.108 62.1938ZM128.204 72.4453L127.222 72.2569L127.221 72.262L128.204 72.4453ZM127.855 74.3179L126.872 74.1346L126.872 74.135L127.855 74.3179ZM126.554 76.3809L125.999 75.5488L125.99 75.5545L125.982 75.5605L126.554 76.3809ZM121 72.6992L120.031 72.4493L120.028 72.4606L120.026 72.472L121 72.6992ZM121.825 69.6841L120.862 69.4128L120.862 69.4133L121.825 69.6841ZM126.776 48.5146L125.793 48.3307L125.793 48.3319L126.776 48.5146ZM130.299 28.3608L131.286 28.5206L131.288 28.5098L130.299 28.3608ZM139.63 26.4565L138.692 26.8032L138.694 26.8099L139.63 26.4565ZM140.646 30.519L141.63 30.3452L141.63 30.3412L140.646 30.519ZM146.073 61.8765L145.087 62.0424L145.682 65.5812L147.003 62.2444L146.073 61.8765ZM159.625 27.6309L160.555 27.9988L160.557 27.9941L159.625 27.6309ZM161.625 24.7427L161.009 23.9543L161 23.9618L161.625 24.7427ZM168.131 25.0918L167.364 25.7338L167.373 25.744L168.131 25.0918ZM168.305 28.9004C168.305 30.0632 168.232 32.6355 168.084 36.6393L170.082 36.7133C170.23 32.719 170.305 30.1074 170.305 28.9004H168.305ZM168.084 36.639C167.872 42.3065 167.766 46.1126 167.766 48.0386H169.766C169.766 46.156 169.871 42.3871 170.082 36.7136L168.084 36.639ZM167.766 48.0386C167.766 50.2193 167.682 53.5256 167.512 57.9663L169.511 58.0425C169.68 53.5964 169.766 50.2589 169.766 48.0386H167.766ZM167.513 57.9599C167.365 61.2838 167.29 63.7359 167.29 65.3042H169.29C169.29 63.7833 169.363 61.3689 169.511 58.0489L167.513 57.9599ZM167.29 65.3042C167.29 67.5784 167.397 69.9454 167.611 72.405L169.603 72.2317C169.394 69.8248 169.29 67.5157 169.29 65.3042H167.29ZM167.611 72.4089C167.674 73.0996 167.702 73.5921 167.702 73.9053H169.702C169.702 73.499 169.667 72.9336 169.603 72.2278L167.611 72.4089ZM167.702 73.9053C167.702 74.5594 167.48 75.0427 167.028 75.4379L168.345 76.943C169.248 76.1533 169.702 75.1132 169.702 73.9053H167.702ZM167.015 75.4494C166.561 75.8605 165.921 76.1108 164.989 76.1108V78.1108C166.299 78.1108 167.458 77.7475 168.358 76.9314L167.015 75.4494ZM164.989 76.1108C164.142 76.1108 163.582 75.8825 163.195 75.522L161.832 76.9858C162.672 77.7679 163.762 78.1108 164.989 78.1108V76.1108ZM163.194 75.5211C162.846 75.1982 162.625 74.7253 162.625 73.9688H160.625C160.625 75.1588 160.996 76.2093 161.833 76.9867L163.194 75.5211ZM162.625 73.9688C162.625 73.2105 162.723 72.0355 162.934 70.4159L160.95 70.1583C160.737 71.7972 160.625 73.0766 160.625 73.9688H162.625ZM162.936 70.391C163.085 68.9657 163.203 67.6753 163.288 66.5206L161.294 66.3729C161.21 67.5034 161.095 68.7733 160.947 70.1832L162.936 70.391ZM163.289 66.5156C163.459 64.0404 163.671 58.9972 163.925 51.4045L161.926 51.3377C161.672 58.9371 161.461 63.9443 161.293 66.378L163.289 66.5156ZM163.925 51.4044C164.179 43.7824 164.338 37.1944 164.402 31.6413L162.402 31.6184C162.339 37.1526 162.18 43.7254 161.926 51.3378L163.925 51.4044ZM162.472 31.2631C160.739 35.6576 157.62 43.3647 153.113 54.3887L154.965 55.1455C159.471 44.1219 162.595 36.4042 164.332 31.9966L162.472 31.2631ZM153.112 54.3919L147.78 67.5632L149.634 68.3137L154.966 55.1423L153.112 54.3919ZM147.779 67.5671C147.384 68.5523 146.971 69.1646 146.584 69.5064L147.91 71.0044C148.624 70.3728 149.183 69.4405 149.636 68.3099L147.779 67.5671ZM146.601 69.492C146.231 69.805 145.825 69.9536 145.343 69.9536V71.9536C146.299 71.9536 147.163 71.6367 147.893 71.0188L146.601 69.492ZM145.343 69.9536C144.643 69.9536 144.126 69.7854 143.734 69.5051L142.572 71.1326C143.364 71.6987 144.308 71.9536 145.343 71.9536V69.9536ZM143.748 69.5153C143.466 69.3061 143.127 68.8004 142.892 67.7253L140.938 68.1516C141.211 69.404 141.697 70.4852 142.558 71.1224L143.748 69.5153ZM142.896 67.7461C142.687 66.6807 142.425 65.1998 142.108 63.299L140.135 63.6278C140.453 65.5356 140.719 67.0381 140.934 68.1309L142.896 67.7461ZM142.108 63.2997C141.282 58.3223 140.55 54.197 139.913 50.926L137.95 51.3084C138.582 54.5543 139.311 58.6598 140.135 63.6271L142.108 63.2997ZM139.913 50.9276C138.962 46.0005 137.767 39.6764 136.328 31.9545L134.362 32.3208C135.801 40.0449 136.997 46.3738 137.95 51.3068L139.913 50.9276ZM134.375 31.8952C134.305 32.1745 134.247 32.4544 134.2 32.735L136.173 33.0638C136.211 32.8366 136.258 32.6087 136.315 32.3802L134.375 31.8952ZM134.191 32.8089C134.172 33.0091 134.146 33.1958 134.111 33.3698L136.072 33.762C136.122 33.5128 136.158 33.2552 136.182 32.9899L134.191 32.8089ZM134.109 33.3791C132.881 39.8372 131.937 45.1161 131.279 49.213L133.254 49.5302C133.908 45.4597 134.847 40.2016 136.074 33.7527L134.109 33.3791ZM131.279 49.2148C130.433 54.5432 129.715 58.8081 129.125 62.0127L131.092 62.375C131.686 59.1473 132.407 54.864 133.254 49.5283L131.279 49.2148ZM129.124 62.0178C128.554 65.2081 127.92 68.6211 127.222 72.2569L129.186 72.6337C129.885 68.9908 130.521 65.5695 131.093 62.3699L129.124 62.0178ZM127.221 72.262L126.872 74.1346L128.838 74.5012L129.187 72.6286L127.221 72.262ZM126.872 74.135C126.746 74.8095 126.448 75.2492 125.999 75.5488L127.108 77.2129C128.055 76.5816 128.625 75.6459 128.838 74.5008L126.872 74.135ZM125.982 75.5605C125.485 75.9067 124.829 76.1108 123.951 76.1108V78.1108C125.147 78.1108 126.226 77.8283 127.126 77.2013L125.982 75.5605ZM123.951 76.1108C123.221 76.1108 122.71 75.9092 122.332 75.5714L121 77.0633C121.807 77.7835 122.819 78.1108 123.951 78.1108V76.1108ZM122.332 75.5714C121.967 75.2458 121.777 74.837 121.777 74.2544H119.777C119.777 75.3645 120.18 76.331 121 77.0633L122.332 75.5714ZM121.777 74.2544C121.777 73.9611 121.833 73.5266 121.973 72.9264L120.026 72.472C119.869 73.1414 119.777 73.7436 119.777 74.2544H121.777ZM121.968 72.9491C122.134 72.3042 122.407 71.3078 122.787 69.9548L120.862 69.4133C120.481 70.7687 120.203 71.7824 120.031 72.4493L121.968 72.9491ZM122.787 69.9554C123.679 66.7924 124.507 63.6609 125.271 60.5607L123.329 60.0819C122.57 63.1601 121.748 66.2704 120.862 69.4128L122.787 69.9554ZM125.271 60.5607C126.039 57.4457 126.868 53.4895 127.759 48.6974L125.793 48.3319C124.906 53.1036 124.085 57.0185 123.329 60.0819L125.271 60.5607ZM127.759 48.6986C129.051 41.7932 130.227 35.0672 131.286 28.5206L129.312 28.2011C128.255 34.7307 127.082 41.4405 125.793 48.3307L127.759 48.6986ZM131.288 28.5098C131.495 27.1322 131.988 26.225 132.671 25.6515C133.359 25.0749 134.368 24.7271 135.821 24.7271V22.7271C134.058 22.7271 132.539 23.1515 131.386 24.1194C130.228 25.0906 129.568 26.5003 129.31 28.2118L131.288 28.5098ZM135.821 24.7271C136.682 24.7271 137.25 24.9107 137.62 25.1755L138.783 23.5481C137.969 22.9666 136.95 22.7271 135.821 22.7271V24.7271ZM137.62 25.1755C137.994 25.4425 138.373 25.9412 138.692 26.8032L140.568 26.1099C140.167 25.0253 139.594 24.1275 138.783 23.5481L137.62 25.1755ZM138.694 26.8099C139.022 27.6781 139.348 28.9631 139.661 30.6969L141.63 30.3412C141.308 28.5626 140.957 27.1393 140.565 26.1031L138.694 26.8099ZM139.661 30.6929C141.797 42.7941 143.606 53.2437 145.087 62.0424L147.059 61.7105C145.577 52.905 143.768 42.4498 141.63 30.3452L139.661 30.6929ZM147.003 62.2444L160.555 27.9988L158.695 27.2629L145.143 61.5085L147.003 62.2444ZM160.557 27.9941C160.994 26.8711 161.569 26.0677 162.249 25.5235L161 23.9618C159.987 24.7719 159.229 25.8939 158.693 27.2677L160.557 27.9941ZM162.24 25.531C162.889 25.0243 163.786 24.7271 165.021 24.7271V22.7271C163.462 22.7271 162.095 23.1068 161.009 23.9544L162.24 25.531ZM165.021 24.7271C166.072 24.7271 166.814 25.0766 167.364 25.7337L168.898 24.4499C167.924 23.2873 166.593 22.7271 165.021 22.7271V24.7271ZM167.373 25.744C167.951 26.4165 168.305 27.4246 168.305 28.9004H170.305C170.305 27.1177 169.876 25.5868 168.889 24.4396L167.373 25.744ZM209.676 43.3096L208.706 43.067L208.703 43.0785L208.701 43.0901L209.676 43.3096ZM209.327 44.8013L208.366 44.5265L208.361 44.5441L208.356 44.5619L209.327 44.8013ZM208.661 47.6895L209.64 47.89L209.644 47.872L209.647 47.8539L208.661 47.6895ZM206.756 59.2739L205.766 59.1325L205.766 59.1366L206.756 59.2739ZM205.899 71.7153L204.907 71.8345L204.907 71.8394L205.899 71.7153ZM205.233 76.2539L204.526 75.5468L204.519 75.5535L204.513 75.5603L205.233 76.2539ZM200.313 75.8413L199.469 76.3769L199.477 76.3889L199.485 76.4008L200.313 75.8413ZM199.742 68.2241L200.736 68.3316L198.867 67.7407L199.742 68.2241ZM181.905 75.7144L181.331 76.5331L181.336 76.5365L181.905 75.7144ZM178.16 70.668L177.227 71.0287L177.229 71.0317L178.16 70.668ZM186 41.5322L186.622 42.3148L186.623 42.3142L186 41.5322ZM199.615 39.1519L199.156 40.0403L199.165 40.0448L199.174 40.0492L199.615 39.1519ZM202.979 42.0718L202.17 42.6592L203.625 44.6642L203.97 42.2108L202.979 42.0718ZM204.217 39.3423L203.546 38.6013L203.54 38.6066L203.534 38.612L204.217 39.3423ZM209.073 39.2788L208.379 39.9987L208.385 40.0047L208.392 40.0107L209.073 39.2788ZM193.014 69.9697L193.65 70.7411L193.656 70.7364L193.014 69.9697ZM197.774 64.3521L196.934 63.8097L196.931 63.8152L197.774 64.3521ZM201.329 56.957L202.278 57.2733L202.306 57.1877L202.319 57.0985L201.329 56.957ZM201.551 55.4019L202.541 55.5433L202.542 55.5359L201.551 55.4019ZM202.599 46.166L203.595 46.2484L203.72 44.7381L202.282 45.2173L202.599 46.166ZM200.44 45.5947L199.752 46.3202L199.759 46.3268L199.766 46.3332L200.44 45.5947ZM198.028 43.8174L197.543 44.6915L197.557 44.6995L197.572 44.7069L198.028 43.8174ZM189.11 45.9756L188.426 45.2456L188.423 45.2492L189.11 45.9756ZM183.968 69.8428L183.127 70.3836L183.133 70.392L183.968 69.8428ZM208.994 41.3735C208.994 41.6911 208.913 42.2394 208.706 43.067L210.646 43.5521C210.863 42.687 210.994 41.9446 210.994 41.3735H208.994ZM208.701 43.0901C208.507 43.9528 208.398 44.4133 208.366 44.5265L210.289 45.076C210.341 44.893 210.465 44.359 210.652 43.5291L208.701 43.0901ZM208.356 44.5619C207.979 46.0918 207.745 47.0976 207.674 47.5251L209.647 47.8539C209.703 47.5195 209.914 46.5999 210.298 45.0407L208.356 44.5619ZM207.681 47.4889C207.125 50.2057 206.487 54.0905 205.766 59.1325L207.746 59.4153C208.465 54.3857 209.096 50.5476 209.64 47.89L207.681 47.4889ZM205.766 59.1366C205.07 64.1555 204.709 67.5071 204.709 69.1128H206.709C206.709 67.6716 207.046 64.464 207.747 59.4113L205.766 59.1366ZM204.709 69.1128C204.709 69.8455 204.777 70.7566 204.907 71.8345L206.892 71.5962C206.768 70.5581 206.709 69.7342 206.709 69.1128H204.709ZM204.907 71.8394C205.033 72.8443 205.09 73.567 205.09 74.0322H207.09C207.09 73.4395 207.02 72.6176 206.892 71.5913L204.907 71.8394ZM205.09 74.0322C205.09 74.7133 204.885 75.1874 204.526 75.5468L205.94 76.961C206.723 76.1779 207.09 75.1708 207.09 74.0322H205.09ZM204.513 75.5603C204.184 75.9017 203.722 76.1108 203.011 76.1108V78.1108C204.163 78.1108 205.182 77.7487 205.953 76.9475L204.513 75.5603ZM203.011 76.1108C202.039 76.1108 201.488 75.7946 201.142 75.2818L199.485 76.4008C200.281 77.5807 201.529 78.1108 203.011 78.1108V76.1108ZM201.158 75.3058C200.741 74.6484 200.488 73.711 200.488 72.4136H198.488C198.488 73.9514 198.786 75.2992 199.469 76.3769L201.158 75.3058ZM200.488 72.4136C200.488 71.2306 200.57 69.8711 200.736 68.3316L198.748 68.1166C198.576 69.7087 198.488 71.1421 198.488 72.4136H200.488ZM198.867 67.7407C197.353 70.4817 195.594 72.6121 193.605 74.1641L194.835 75.7411C197.077 73.9924 199 71.6371 200.618 68.7075L198.867 67.7407ZM193.605 74.1641C191.619 75.7132 189.703 76.4282 187.84 76.4282V78.4282C190.252 78.4282 192.589 77.4929 194.835 75.7411L193.605 74.1641ZM187.84 76.4282C185.706 76.4282 183.934 75.9023 182.474 74.8922L181.336 76.5365C183.178 77.8115 185.362 78.4282 187.84 78.4282V76.4282ZM182.479 74.8956C181.041 73.887 179.902 72.3793 179.092 70.3042L177.229 71.0317C178.153 73.3999 179.511 75.2565 181.331 76.5331L182.479 74.8956ZM179.093 70.3072C178.282 68.2104 177.859 65.6211 177.859 62.5112H175.859C175.859 65.7914 176.303 68.6399 177.227 71.0287L179.093 70.3072ZM177.859 62.5112C177.859 58.3697 178.658 54.4981 180.25 50.8857L178.419 50.0792C176.711 53.957 175.859 58.1046 175.859 62.5112H177.859ZM180.25 50.8857C181.844 47.2669 183.973 44.4217 186.622 42.3148L185.377 40.7496C182.44 43.0861 180.125 46.2077 178.419 50.0792L180.25 50.8857ZM186.623 42.3142C189.277 40.199 192.118 39.168 195.172 39.168V37.168C191.624 37.168 188.35 38.3798 185.376 40.7502L186.623 42.3142ZM195.172 39.168C196.734 39.168 198.053 39.4701 199.156 40.0403L200.074 38.2634C198.639 37.5218 196.995 37.168 195.172 37.168V39.168ZM199.174 40.0492C200.301 40.6034 201.301 41.4621 202.17 42.6592L203.789 41.4844C202.753 40.0577 201.511 38.9698 200.057 38.2545L199.174 40.0492ZM203.97 42.2108C204.119 41.1508 204.462 40.4824 204.9 40.0726L203.534 38.612C202.66 39.4294 202.179 40.5806 201.989 41.9328L203.97 42.2108ZM204.889 40.0833C205.342 39.6722 205.983 39.4219 206.915 39.4219V37.4219C205.604 37.4219 204.446 37.7852 203.546 38.6013L204.889 40.0833ZM206.915 39.4219C207.511 39.4219 207.979 39.6127 208.379 39.9987L209.767 38.559C208.983 37.8024 208.012 37.4219 206.915 37.4219V39.4219ZM208.392 40.0107C208.806 40.3963 208.994 40.8309 208.994 41.3735H210.994C210.994 40.2657 210.568 39.3039 209.755 38.5469L208.392 40.0107ZM188.348 73.0645C190.095 73.0645 191.871 72.2085 193.65 70.7411L192.377 69.1984C190.771 70.5239 189.436 71.0645 188.348 71.0645V73.0645ZM193.656 70.7364C195.444 69.2389 197.095 67.2823 198.618 64.8889L196.931 63.8152C195.492 66.0768 193.969 67.8653 192.372 69.2031L193.656 70.7364ZM198.615 64.8944C200.162 62.4971 201.383 59.9562 202.278 57.2733L200.38 56.6408C199.54 59.1629 198.391 61.5521 196.934 63.8097L198.615 64.8944ZM202.319 57.0985L202.541 55.5433L200.561 55.2604L200.339 56.8156L202.319 57.0985ZM202.542 55.5359C203.03 51.9281 203.382 48.8313 203.595 46.2484L201.602 46.0837C201.392 48.6212 201.045 51.6816 200.56 55.2678L202.542 55.5359ZM202.282 45.2173C202.199 45.245 202.106 45.2612 201.996 45.2612V47.2612C202.309 47.2612 202.617 47.214 202.915 47.1147L202.282 45.2173ZM201.996 45.2612C201.743 45.2612 201.456 45.1675 201.115 44.8562L199.766 46.3332C200.399 46.9106 201.148 47.2612 201.996 47.2612V45.2612ZM201.129 44.8693C200.254 44.039 199.373 43.3838 198.485 42.9278L197.572 44.7069C198.249 45.055 198.977 45.5847 199.752 46.3202L201.129 44.8693ZM198.514 42.9432C197.578 42.4231 196.505 42.1826 195.331 42.1826V44.1826C196.23 44.1826 196.955 44.3653 197.543 44.6915L198.514 42.9432ZM195.331 42.1826C192.857 42.1826 190.55 43.2576 188.426 45.2456L189.793 46.7056C191.648 44.9697 193.488 44.1826 195.331 44.1826V42.1826ZM188.423 45.2492C186.329 47.2303 184.668 49.8162 183.419 52.9708L185.279 53.7069C186.442 50.7678 187.955 48.4448 189.797 46.7019L188.423 45.2492ZM183.419 52.9708C182.166 56.1365 181.54 59.4459 181.54 62.8921H183.54C183.54 59.6944 184.12 56.635 185.279 53.7069L183.419 52.9708ZM181.54 62.8921C181.54 66.105 182.018 68.6579 183.127 70.3835L184.809 69.302C184.014 68.0654 183.54 65.9845 183.54 62.8921H181.54ZM183.133 70.392C184.311 72.1857 186.104 73.0645 188.348 73.0645V71.0645C186.699 71.0645 185.572 70.4621 184.804 69.2936L183.133 70.392ZM241.224 43.0239L240.661 42.1977L240.652 42.2038L241.224 43.0239ZM237.923 43.9761V42.976L237.914 42.9761L237.923 43.9761ZM234.464 44.0078L234.455 43.0079L234.439 43.008L234.424 43.0086L234.464 44.0078ZM232.083 44.0396V43.0396H231.213L231.093 43.9017L232.083 44.0396ZM231.068 51.3394L230.077 51.2016L230.077 51.2017L231.068 51.3394ZM229.417 64.9233L228.421 64.8409L229.417 64.9233ZM229.037 72.0962L228.037 72.0854V72.0962H229.037ZM228.941 74.3496L227.949 74.2305L227.947 74.2403L227.946 74.2501L228.941 74.3496ZM227.831 76.3491L227.235 75.546L227.226 75.5521L227.218 75.5584L227.831 76.3491ZM222.911 76.2539L222.254 77.008L222.26 77.0131L222.266 77.0182L222.911 76.2539ZM222.308 71.8423L223.278 72.0848L223.282 72.0713L222.308 71.8423ZM222.499 70.9854L221.527 70.7498L221.522 70.7694L221.518 70.7892L222.499 70.9854ZM223.673 65.1772L222.685 65.0218L222.685 65.0243L223.673 65.1772ZM225.26 53.4341L226.252 53.559L226.252 53.5551L225.26 53.4341ZM226.371 44.3252L227.363 44.4462L227.516 43.1978L226.265 43.3308L226.371 44.3252ZM223.863 44.6426L223.991 45.6344L224.004 45.6327L224.018 45.6306L223.863 44.6426ZM217.928 44.2935L217.367 45.1214L217.383 45.1317L217.398 45.1415L217.928 44.2935ZM222.657 38.8662L222.792 37.8752L222.781 37.8739L222.657 38.8662ZM226.91 39.1519L226.897 40.1518L227.815 40.164L227.905 39.2497L226.91 39.1519ZM227.545 30.5508L226.546 30.5021L226.545 30.5151L226.545 30.5281L227.545 30.5508ZM227.64 29.0273L228.63 29.1688L228.631 29.1616L228.632 29.1545L227.64 29.0273ZM228.751 27.0596L228.155 26.2565L228.149 26.2612L228.143 26.266L228.751 27.0596ZM233.607 27.1548L232.939 27.8994L232.946 27.905L232.952 27.9105L233.607 27.1548ZM233.766 33.7563L232.791 33.5328L232.789 33.5398L232.788 33.5468L233.766 33.7563ZM233.385 35.502H234.385L232.398 35.3376L233.385 35.502ZM232.813 38.9297L231.827 38.7653L231.619 40.0115L232.88 39.9275L232.813 38.9297ZM233.766 38.8662L233.703 37.8681L233.699 37.8684L233.766 38.8662ZM236.4 38.7075L236.341 37.7092L236.34 37.7093L236.4 38.7075ZM240.208 39.5806C240.869 39.5806 241.243 39.7029 241.441 39.8316L242.531 38.1547C241.883 37.7333 241.072 37.5806 240.208 37.5806V39.5806ZM241.441 39.8316C241.478 39.8561 241.621 39.9508 241.621 40.4531H243.621C243.621 39.5589 243.34 38.6804 242.531 38.1547L241.441 39.8316ZM241.621 40.4531C241.621 41.1845 241.333 41.7394 240.661 42.1977L241.787 43.8502C242.977 43.0389 243.621 41.8799 243.621 40.4531H241.621ZM240.652 42.2038C239.936 42.7032 239.044 42.9761 237.923 42.9761V44.9761C239.384 44.9761 240.692 44.6142 241.796 43.8441L240.652 42.2038ZM237.914 42.9761L234.455 43.0079L234.473 45.0078L237.933 44.976L237.914 42.9761ZM234.424 43.0086C233.916 43.0289 233.138 43.0396 232.083 43.0396V45.0396C233.144 45.0396 233.954 45.029 234.504 45.007L234.424 43.0086ZM231.093 43.9017L230.077 51.2016L232.058 51.4772L233.074 44.1774L231.093 43.9017ZM230.077 51.2017C229.21 57.4452 228.656 61.9969 228.421 64.8409L230.414 65.0058C230.644 62.2215 231.191 57.7172 232.058 51.477L230.077 51.2017ZM228.421 64.8409C228.187 67.6696 228.058 70.086 228.037 72.0854L230.037 72.1069C230.057 70.1709 230.183 67.8053 230.414 65.0058L228.421 64.8409ZM228.037 72.0962C228.037 73.0564 228.005 73.7608 227.949 74.2305L229.934 74.4688C230.005 73.8804 230.037 73.0825 230.037 72.0962H228.037ZM227.946 74.2501C227.888 74.8293 227.654 75.2349 227.235 75.546L228.426 77.1522C229.319 76.49 229.825 75.5626 229.936 74.4491L227.946 74.2501ZM227.218 75.5584C226.767 75.908 226.178 76.1108 225.387 76.1108V78.1108C226.542 78.1108 227.582 77.8059 228.443 77.1398L227.218 75.5584ZM225.387 76.1108C224.624 76.1108 224.034 75.8933 223.556 75.4896L222.266 77.0182C223.142 77.7571 224.202 78.1108 225.387 78.1108V76.1108ZM223.568 75.4998C223.103 75.0948 222.927 74.6822 222.927 74.2227H220.927C220.927 75.3288 221.408 76.2704 222.254 77.008L223.568 75.4998ZM222.927 74.2227C222.927 73.9867 222.959 73.6594 223.038 73.2272L221.07 72.8695C220.98 73.3683 220.927 73.8238 220.927 74.2227H222.927ZM223.038 73.2272C223.12 72.7761 223.2 72.3964 223.278 72.0848L221.338 71.5997C221.247 71.9652 221.158 72.3895 221.07 72.8695L223.038 73.2272ZM223.282 72.0713C223.367 71.7072 223.434 71.4091 223.479 71.1815L221.518 70.7892C221.479 70.9848 221.418 71.258 221.335 71.6132L223.282 72.0713ZM223.47 71.221C223.984 69.1041 224.381 67.1401 224.661 65.3302L222.685 65.0243C222.415 66.7691 222.029 68.6772 221.527 70.7498L223.47 71.221ZM224.661 65.3327C225.023 63.0308 225.554 59.1027 226.252 53.559L224.268 53.3091C223.569 58.8527 223.042 62.7534 222.685 65.0218L224.661 65.3327ZM226.252 53.5551L227.363 44.4462L225.378 44.2041L224.267 53.313L226.252 53.5551ZM226.265 43.3308C225.261 43.4376 224.408 43.5454 223.709 43.6546L224.018 45.6306C224.673 45.5282 225.492 45.4244 226.476 45.3196L226.265 43.3308ZM223.736 43.6507C222.262 43.8402 221.215 43.9282 220.562 43.9282V45.9282C221.349 45.9282 222.502 45.8258 223.991 45.6344L223.736 43.6507ZM220.562 43.9282C219.607 43.9282 218.93 43.7402 218.458 43.4455L217.398 45.1415C218.281 45.6931 219.36 45.9282 220.562 45.9282V43.9282ZM218.489 43.4655C218.172 43.2509 217.944 42.8947 217.944 42.167H215.944C215.944 43.3859 216.372 44.4474 217.367 45.1214L218.489 43.4655ZM217.944 42.167C217.944 41.2751 218.184 40.7037 218.552 40.3225L217.114 38.9333C216.297 39.7794 215.944 40.9006 215.944 42.167H217.944ZM218.552 40.3225C218.917 39.945 219.449 39.7075 220.277 39.7075V37.7075C219.031 37.7075 217.934 38.0836 217.114 38.9333L218.552 40.3225ZM220.277 39.7075C220.97 39.7075 221.722 39.7571 222.533 39.8585L222.781 37.8739C221.9 37.7637 221.065 37.7075 220.277 37.7075V39.7075ZM222.523 39.8571C223.82 40.033 225.279 40.1302 226.897 40.1518L226.923 38.1519C225.367 38.1312 223.991 38.0379 222.792 37.8753L222.523 39.8571ZM227.905 39.2497C228.287 35.3734 228.501 32.4752 228.545 30.5735L226.545 30.5281C226.504 32.3503 226.295 35.1861 225.915 39.054L227.905 39.2497ZM228.544 30.5995C228.565 30.1676 228.583 29.829 228.599 29.5817C228.606 29.4579 228.613 29.36 228.619 29.2863C228.622 29.2495 228.625 29.2208 228.627 29.1993C228.629 29.1763 228.63 29.1677 228.63 29.1688L226.65 28.8859C226.621 29.0929 226.587 29.6629 226.546 30.5021L228.544 30.5995ZM228.632 29.1545C228.705 28.5818 228.945 28.1705 229.359 27.8532L228.143 26.266C227.287 26.9219 226.786 27.8225 226.648 28.9002L228.632 29.1545ZM229.347 27.8627C229.789 27.5347 230.41 27.3296 231.29 27.3296V25.3296C230.097 25.3296 229.025 25.6111 228.155 26.2565L229.347 27.8627ZM231.29 27.3296C232.009 27.3296 232.533 27.5352 232.939 27.8994L234.274 26.4102C233.453 25.6741 232.433 25.3296 231.29 25.3296V27.3296ZM232.952 27.9105C233.366 28.269 233.559 28.6906 233.559 29.2495H235.559C235.559 28.1157 235.118 27.1408 234.262 26.3991L232.952 27.9105ZM233.559 29.2495C233.559 29.8124 233.327 31.1975 232.791 33.5328L234.74 33.9799C235.263 31.7026 235.559 30.0831 235.559 29.2495H233.559ZM232.788 33.5468C232.661 34.139 232.566 34.5792 232.503 34.8683C232.471 35.0133 232.448 35.1179 232.433 35.1839C232.425 35.2182 232.421 35.2366 232.419 35.2438C232.418 35.2515 232.421 35.238 232.427 35.218C232.428 35.2118 232.432 35.1987 232.438 35.1821C232.44 35.1749 232.456 35.1271 232.484 35.0694C232.492 35.0525 232.535 34.9597 232.618 34.8605C232.655 34.8163 232.764 34.6921 232.95 34.6022C233.181 34.4904 233.541 34.4361 233.889 34.6387C234.163 34.7986 234.272 35.0334 234.306 35.1125C234.348 35.2123 234.364 35.2966 234.371 35.3357C234.385 35.4173 234.385 35.4821 234.385 35.502H232.385C232.385 35.5221 232.385 35.5872 232.399 35.669C232.405 35.7081 232.422 35.7926 232.464 35.8924C232.497 35.9715 232.607 36.2064 232.881 36.3663C233.228 36.569 233.589 36.5146 233.82 36.4029C234.006 36.3129 234.115 36.1887 234.152 36.1444C234.235 36.045 234.278 35.9521 234.287 35.9349C234.315 35.8767 234.331 35.8281 234.333 35.8198C234.339 35.8021 234.344 35.7876 234.346 35.7798C234.354 35.7529 234.36 35.728 234.362 35.7195C234.368 35.6942 234.376 35.6614 234.384 35.6256C234.401 35.5515 234.425 35.4405 234.457 35.2946C234.521 35.0018 234.616 34.5586 234.743 33.9659L232.788 33.5468ZM232.398 35.3376L231.827 38.7653L233.8 39.0941L234.371 35.6664L232.398 35.3376ZM232.88 39.9275L233.832 39.864L233.699 37.8684L232.747 37.9319L232.88 39.9275ZM233.828 39.8643C234.165 39.8432 235.041 39.7904 236.459 39.7057L236.34 37.7093C234.923 37.7939 234.044 37.8469 233.703 37.8682L233.828 39.8643ZM236.459 39.7058C237.883 39.622 239.133 39.5806 240.208 39.5806V37.5806C239.084 37.5806 237.794 37.6238 236.341 37.7092L236.459 39.7058ZM272.867 39.501L272.334 40.347L272.341 40.3513L272.348 40.3554L272.867 39.501ZM276.485 43.5952L275.582 44.0251L275.586 44.0316L275.589 44.0381L276.485 43.5952ZM277.025 56.2271L276.036 56.0772L276.035 56.0848L276.034 56.0924L277.025 56.2271ZM276.136 62.7651L275.145 62.6304L275.144 62.6411L276.136 62.7651ZM268.233 72.4771L269.208 72.7019L269.209 72.6966L268.233 72.4771ZM268.836 69.9697L269.805 70.2181L269.807 70.2089L268.836 69.9697ZM269.376 67.7798L270.347 68.019L270.351 68.0037L270.354 67.9882L269.376 67.7798ZM271.185 57.9092L272.172 58.071L272.172 58.0702L271.185 57.9092ZM270.868 45.0234L270.087 45.6481L270.094 45.6567L270.101 45.6652L270.868 45.0234ZM261.727 45.4678L262.323 46.2712L262.329 46.2666L261.727 45.4678ZM256.839 51.0854L255.984 50.5676L255.981 50.5732L256.839 51.0854ZM253.38 59.3057L252.418 59.0336L252.395 59.1122L252.386 59.1934L253.38 59.3057ZM252.269 72.0645L251.27 72.0154L251.27 72.019L252.269 72.0645ZM252.11 74.3496L251.116 74.2431L251.115 74.2501L252.11 74.3496ZM250.968 76.3491L250.384 75.5371L250.37 75.5475L250.356 75.5584L250.968 76.3491ZM246.651 66.542L247.626 66.7669L247.628 66.7564L246.651 66.542ZM246.937 65.1772L245.948 65.0281L245.937 65.1023V65.1772H246.937ZM248.587 52.7993L247.595 52.675L247.595 52.6753L248.587 52.7993ZM250.682 34.2959L249.686 34.2059L249.686 34.211L250.682 34.2959ZM251.285 25.79L250.287 25.7346L250.286 25.7458L250.286 25.7571L251.285 25.79ZM251.38 24.3936L250.388 24.2664L250.388 24.2695L251.38 24.3936ZM252.491 22.4258L251.895 21.6227L251.889 21.6274L251.883 21.6322L252.491 22.4258ZM257.347 22.5527L256.666 23.2846L256.679 23.2968L256.692 23.3084L257.347 22.5527ZM258.077 26.0122L257.105 25.7776L257.101 25.7935L257.098 25.8096L258.077 26.0122ZM257.823 27.1548L256.862 26.8801L256.857 26.8976L256.852 26.9152L257.823 27.1548ZM257.03 30.8682L258.017 31.0256L258.019 31.0165L257.03 30.8682ZM254.649 48.4829L253.657 48.3631L255.521 48.9732L254.649 48.4829ZM260.648 40.7388L261.295 41.5013L261.299 41.4975L260.648 40.7388ZM267.503 39.041C269.368 39.041 270.967 39.4854 272.334 40.347L273.4 38.6549C271.678 37.57 269.701 37.041 267.503 37.041V39.041ZM272.348 40.3554C273.735 41.1988 274.813 42.4099 275.582 44.0251L277.388 43.1653C276.465 41.2258 275.131 39.7075 273.387 38.6466L272.348 40.3554ZM275.589 44.0381C276.375 45.6306 276.787 47.5362 276.787 49.7842H278.787C278.787 47.2926 278.33 45.0722 277.382 43.1523L275.589 44.0381ZM276.787 49.7842C276.787 50.2891 276.72 51.1046 276.572 52.2605L278.556 52.513C278.706 51.3413 278.787 50.4218 278.787 49.7842H276.787ZM276.572 52.2605C276.426 53.415 276.247 54.6871 276.036 56.0772L278.014 56.3769C278.226 54.9741 278.407 53.686 278.556 52.513L276.572 52.2605ZM276.034 56.0924L275.145 62.6305L277.127 62.8998L278.016 56.3617L276.034 56.0924ZM275.144 62.6411C274.427 68.3787 274.057 72.1483 274.057 73.8735H276.057C276.057 72.298 276.407 68.662 277.129 62.8892L275.144 62.6411ZM274.057 73.8735C274.057 74.5523 273.818 75.0443 273.322 75.4413L274.571 77.003C275.556 76.2151 276.057 75.1413 276.057 73.8735H274.057ZM273.322 75.4413C272.796 75.862 272.08 76.1108 271.09 76.1108V78.1108C272.428 78.1108 273.616 77.7673 274.571 77.003L273.322 75.4413ZM271.09 76.1108C270.465 76.1108 269.971 75.9145 269.55 75.522L268.187 76.9858C268.992 77.7359 269.979 78.1108 271.09 78.1108V76.1108ZM269.55 75.522C269.129 75.1308 268.948 74.7042 268.948 74.1909H266.948C266.948 75.2857 267.38 76.2345 268.187 76.9858L269.55 75.522ZM268.948 74.1909C268.948 74.0029 269.015 73.5364 269.208 72.7019L267.259 72.2522C267.071 73.0681 266.948 73.7442 266.948 74.1909H268.948ZM269.209 72.6966C269.397 71.8597 269.596 71.0335 269.805 70.2181L267.868 69.7214C267.654 70.5563 267.45 71.4017 267.258 72.2575L269.209 72.6966ZM269.807 70.2089L270.347 68.019L268.405 67.5406L267.865 69.7305L269.807 70.2089ZM270.354 67.9882C270.909 65.3855 271.515 62.0784 272.172 58.071L270.198 57.7473C269.544 61.738 268.944 65.0113 268.398 67.5714L270.354 67.9882ZM272.172 58.0702C272.826 54.0601 273.169 51.2529 273.169 49.7207H271.169C271.169 51.0662 270.856 53.7179 270.198 57.7482L272.172 58.0702ZM273.169 49.7207C273.169 47.514 272.716 45.6742 271.635 44.3817L270.101 45.6652C270.754 46.4462 271.169 47.738 271.169 49.7207H273.169ZM271.649 44.3987C270.579 43.0615 269.05 42.4365 267.218 42.4365V44.4365C268.559 44.4365 269.464 44.8694 270.087 45.6481L271.649 44.3987ZM267.218 42.4365C265.096 42.4365 263.06 43.2122 261.126 44.6689L262.329 46.2666C263.991 45.015 265.615 44.4365 267.218 44.4365V42.4365ZM261.132 44.6644C259.205 46.092 257.494 48.0721 255.984 50.5676L257.695 51.6033C259.104 49.2746 260.652 47.5095 262.323 46.2712L261.132 44.6644ZM255.981 50.5732C254.491 53.0698 253.306 55.8924 252.418 59.0336L254.342 59.5778C255.189 56.5828 256.31 53.9253 257.698 51.5977L255.981 50.5732ZM252.386 59.1934C251.814 64.2626 251.441 68.5381 251.27 72.0154L253.268 72.1135C253.436 68.693 253.804 64.4627 254.374 59.4179L252.386 59.1934ZM251.27 72.019C251.228 72.9396 251.176 73.6789 251.116 74.2431L253.105 74.4561C253.171 73.8354 253.225 73.0513 253.268 72.1099L251.27 72.019ZM251.115 74.2501C251.059 74.8175 250.823 75.2217 250.384 75.5371L251.551 77.1611C252.467 76.5032 252.993 75.5744 253.105 74.4491L251.115 74.2501ZM250.356 75.5584C249.911 75.9023 249.305 76.1108 248.46 76.1108V78.1108C249.647 78.1108 250.712 77.8115 251.58 77.1398L250.356 75.5584ZM248.46 76.1108C247.808 76.1108 247.287 75.9094 246.844 75.5106L245.506 76.9972C246.333 77.741 247.336 78.1108 248.46 78.1108V76.1108ZM246.844 75.5106C246.392 75.1034 246.223 74.6966 246.223 74.2544H244.223C244.223 75.3357 244.689 76.2618 245.506 76.9972L246.844 75.5106ZM246.223 74.2544C246.223 74.1175 246.263 73.7483 246.376 73.0699C246.485 72.4195 246.649 71.5486 246.87 70.4533L244.909 70.0574C244.686 71.1626 244.517 72.0585 244.403 72.7411C244.294 73.3958 244.223 73.9258 244.223 74.2544H246.223ZM246.87 70.4533C247.316 68.2424 247.566 67.0245 247.626 66.7669L245.677 66.3171C245.609 66.6097 245.352 67.8673 244.909 70.0574L246.87 70.4533ZM247.628 66.7564C247.724 66.3218 247.796 65.9874 247.844 65.755C247.869 65.6395 247.888 65.545 247.901 65.4744C247.908 65.4398 247.914 65.4051 247.919 65.3739C247.922 65.3587 247.925 65.3382 247.928 65.3158C247.929 65.3063 247.937 65.248 247.937 65.1772H245.937C245.937 65.1374 245.94 65.1069 245.941 65.0954C245.942 65.0807 245.943 65.0697 245.944 65.0643C245.945 65.0535 245.946 65.048 245.946 65.051C245.945 65.0562 245.942 65.0708 245.937 65.0983C245.927 65.152 245.91 65.2334 245.887 65.3453C245.84 65.5679 245.77 65.8947 245.675 66.3276L247.628 66.7564ZM247.926 65.3264C248.33 62.6472 248.881 58.5107 249.58 52.9234L247.595 52.6753C246.897 58.2598 246.348 62.3753 245.948 65.0281L247.926 65.3264ZM249.58 52.9237C250.659 44.3114 251.359 38.1263 251.679 34.3808L249.686 34.211C249.37 37.9134 248.674 44.0639 247.595 52.675L249.58 52.9237ZM251.678 34.3859C252.017 30.6361 252.22 27.7778 252.285 25.823L250.286 25.7571C250.223 27.6532 250.024 30.4655 249.686 34.2059L251.678 34.3859ZM252.284 25.8455C252.327 25.0684 252.357 24.6443 252.373 24.5176L250.388 24.2695C250.362 24.4813 250.328 24.9883 250.287 25.7346L252.284 25.8455ZM252.372 24.5207C252.446 23.948 252.686 23.5367 253.1 23.2194L251.883 21.6322C251.027 22.2881 250.527 23.1887 250.388 24.2664L252.372 24.5207ZM253.087 23.2289C253.529 22.9009 254.15 22.6958 255.03 22.6958V20.6958C253.837 20.6958 252.765 20.9773 251.895 21.6227L253.087 23.2289ZM255.03 22.6958C255.739 22.6958 256.258 22.9052 256.666 23.2846L258.029 21.8208C257.209 21.0577 256.184 20.6958 255.03 20.6958V22.6958ZM256.692 23.3084C257.106 23.667 257.299 24.0886 257.299 24.6475H259.299C259.299 23.5136 258.858 22.5388 258.002 21.797L256.692 23.3084ZM257.299 24.6475C257.299 24.8174 257.251 25.1746 257.105 25.7776L259.049 26.2468C259.2 25.6226 259.299 25.07 259.299 24.6475H257.299ZM257.098 25.8096C256.968 26.4372 256.891 26.7759 256.862 26.8801L258.785 27.4295C258.84 27.2375 258.932 26.8144 259.056 26.2148L257.098 25.8096ZM256.852 26.9152C256.449 28.5518 256.175 29.8261 256.041 30.7198L258.019 31.0165C258.139 30.2175 258.394 29.0162 258.794 27.3944L256.852 26.9152ZM256.042 30.7107C255.341 35.1086 254.546 40.9944 253.657 48.3631L255.642 48.6027C256.53 41.2449 257.322 35.3875 258.017 31.0256L256.042 30.7107ZM255.521 48.9732C257.389 45.6517 259.32 43.1773 261.295 41.5013L260.001 39.9763C257.787 41.8549 255.718 44.5433 253.778 47.9926L255.521 48.9732ZM261.299 41.4975C263.235 39.8355 265.295 39.041 267.503 39.041V37.041C264.761 37.041 262.25 38.0451 259.997 39.9801L261.299 41.4975ZM290.514 75.6826L289.996 76.5384L290.514 75.6826ZM286.007 70.6997L285.107 71.1364L285.112 71.1469L286.007 70.6997ZM292.799 42.04L293.494 42.7586L293.494 42.7585L292.799 42.04ZM308.065 40.5166L307.435 41.2933L307.44 41.2975L308.065 40.5166ZM312.54 47.1816L311.602 47.5283L311.604 47.5342L312.54 47.1816ZM311.969 67.9067L312.866 68.3489L312.867 68.3464L311.969 67.9067ZM305.843 74.9209L305.303 74.0795L305.3 74.0815L305.843 74.9209ZM307.367 49.2446L306.406 49.5235L306.409 49.5329L307.367 49.2446ZM304.891 44.7378L304.191 45.452L304.198 45.4589L304.891 44.7378ZM295.528 46.3882L294.729 45.7869L294.728 45.7882L295.528 46.3882ZM292.132 70.4141L291.28 70.9369L291.283 70.942L292.132 70.4141ZM302.574 70.7314L303.189 71.5198L303.191 71.5188L302.574 70.7314ZM306.732 64.9233L307.658 65.3001L307.659 65.2974L306.732 64.9233ZM297.147 76.4282C294.812 76.4282 292.784 75.8861 291.031 74.8268L289.996 76.5384C292.095 77.8066 294.488 78.4282 297.147 78.4282V76.4282ZM291.031 74.8268C289.279 73.768 287.902 72.2544 286.901 70.2525L285.112 71.1469C286.27 73.4615 287.897 75.2698 289.996 76.5384L291.031 74.8268ZM286.906 70.263C285.926 68.243 285.42 65.8687 285.42 63.1143H283.42C283.42 66.115 283.972 68.7977 285.107 71.1364L286.906 70.263ZM285.42 63.1143C285.42 59.4818 286.134 55.7835 287.576 52.014L285.708 51.2995C284.187 55.2741 283.42 59.2141 283.42 63.1143H285.42ZM287.576 52.014C289.012 48.2598 290.989 45.1832 293.494 42.7586L292.103 41.3214C289.361 43.975 287.234 47.3095 285.708 51.2995L287.576 52.014ZM293.494 42.7585C295.979 40.3535 298.689 39.1997 301.654 39.1997V37.1997C298.101 37.1997 294.908 38.6062 292.103 41.3215L293.494 42.7585ZM301.654 39.1997C303.786 39.1997 305.702 39.8877 307.435 41.2932L308.695 39.74C306.619 38.0563 304.261 37.1997 301.654 37.1997V39.1997ZM307.44 41.2975C309.168 42.68 310.569 44.7325 311.602 47.5283L313.478 46.835C312.353 43.791 310.77 41.4001 308.69 39.7357L307.44 41.2975ZM311.604 47.5342C312.652 50.3152 313.19 53.6393 313.19 57.5283H315.19C315.19 53.4616 314.628 49.8879 313.476 46.829L311.604 47.5342ZM313.19 57.5283C313.19 61.2929 312.475 64.5981 311.071 67.4671L312.867 68.3464C314.425 65.164 315.19 61.5502 315.19 57.5283H313.19ZM311.072 67.4646C309.664 70.3201 307.74 72.5143 305.303 74.0795L306.384 75.7623C309.152 73.9844 311.311 71.5024 312.866 68.3489L311.072 67.4646ZM305.3 74.0815C302.888 75.6433 300.18 76.4282 297.147 76.4282V78.4282C300.547 78.4282 303.636 77.5416 306.387 75.7603L305.3 74.0815ZM309.255 56.2271C309.255 53.4704 308.952 51.0413 308.324 48.9563L306.409 49.5329C306.966 51.3835 307.255 53.6093 307.255 56.2271H309.255ZM308.327 48.9658C307.724 46.8892 306.828 45.2116 305.584 44.0167L304.198 45.4589C305.113 46.3375 305.867 47.6645 306.406 49.5234L308.327 48.9658ZM305.591 44.0236C304.352 42.8096 302.855 42.1826 301.146 42.1826V44.1826C302.315 44.1826 303.314 44.5924 304.191 45.452L305.591 44.0236ZM301.146 42.1826C298.616 42.1826 296.474 43.4688 294.729 45.7869L296.327 46.9894C297.799 45.0335 299.401 44.1826 301.146 44.1826V42.1826ZM294.728 45.7882C293.048 48.0288 291.793 50.788 290.943 54.0378L292.878 54.5442C293.677 51.4887 294.835 48.9794 296.328 46.9882L294.728 45.7882ZM290.943 54.0378C290.098 57.2643 289.672 60.3965 289.672 63.4316H291.672C291.672 60.5847 292.072 57.623 292.878 54.5442L290.943 54.0378ZM289.672 63.4316C289.672 66.5771 290.166 69.1212 291.28 70.9369L292.985 69.8912C292.152 68.5331 291.672 66.4223 291.672 63.4316H289.672ZM291.283 70.942C292.471 72.8524 294.38 73.7627 296.798 73.7627V71.7627C294.942 71.7627 293.741 71.1072 292.982 69.8861L291.283 70.942ZM296.798 73.7627C299.146 73.7627 301.286 73.0052 303.189 71.5198L301.959 69.9431C300.392 71.1661 298.681 71.7627 296.798 71.7627V73.7627ZM303.191 71.5188C305.11 70.0156 306.591 67.9248 307.658 65.3001L305.806 64.5465C304.842 66.9154 303.551 68.6967 301.958 69.9441L303.191 71.5188ZM307.659 65.2974C308.732 62.6387 309.255 59.6089 309.255 56.2271H307.255C307.255 59.4045 306.763 62.1722 305.805 64.5493L307.659 65.2974ZM326.41 76.0635L326.795 75.1407L326.79 75.1388L326.41 76.0635ZM321.205 72.604L320.465 73.2772L320.471 73.2832L321.205 72.604ZM326.219 68.4463L327.033 67.865L327.028 67.8581L326.219 68.4463ZM328.441 70.7949L327.86 71.6087L327.873 71.618L327.886 71.627L328.441 70.7949ZM330.821 71.8105L330.62 72.7901L330.635 72.7931L330.649 72.7956L330.821 71.8105ZM340.692 69.2397L339.907 68.6195L339.906 68.6219L340.692 69.2397ZM340.755 63.3682L339.998 64.0207L340.003 64.0266L340.008 64.0325L340.755 63.3682ZM333.709 59.5278L333.365 60.4665L333.367 60.4673L333.709 59.5278ZM326.219 55.4971L325.581 56.2667L325.585 56.2703L326.219 55.4971ZM325.14 43.627L324.316 43.0604L324.311 43.0675L325.14 43.627ZM329.901 39.6279L329.469 38.7261L329.465 38.7279L329.901 39.6279ZM342.564 39.1201L342.242 40.0667L342.251 40.0699L342.564 39.1201ZM342.279 46.0073L342.974 45.2881L342.968 45.2828L342.279 46.0073ZM339.549 44.0713L339.086 44.9575L339.098 44.9638L339.11 44.9697L339.549 44.0713ZM332.408 44.0078L332.78 44.9363L332.788 44.9331L332.795 44.9298L332.408 44.0078ZM329.933 45.7852L330.714 46.4099L330.722 46.3991L329.933 45.7852ZM331.012 51.5298L330.442 52.3515L330.449 52.3567L330.457 52.3618L331.012 51.5298ZM336.502 54.2593L336.131 55.1878L336.502 54.2593ZM342.438 57.0522L341.934 57.916L341.939 57.919L342.438 57.0522ZM346.246 60.4482L345.436 61.0342L345.441 61.0413L345.446 61.0482L346.246 60.4482ZM345.865 71.4614L345.042 70.8937L345.041 70.8957L345.865 71.4614ZM333.36 76.4282C331.033 76.4282 328.847 75.9975 326.795 75.1407L326.024 76.9863C328.331 77.9491 330.779 78.4282 333.36 78.4282V76.4282ZM326.79 75.1388C324.739 74.2941 323.134 73.2161 321.939 71.9248L320.471 73.2832C321.899 74.8272 323.764 76.0556 326.029 76.9882L326.79 75.1388ZM321.944 71.9308C320.764 70.6349 320.269 69.436 320.269 68.3193H318.269C318.269 70.0803 319.064 71.7378 320.465 73.2772L321.944 71.9308ZM320.269 68.3193C320.269 67.6322 320.459 67.1712 320.765 66.8394L319.295 65.4829C318.586 66.2514 318.269 67.2292 318.269 68.3193H320.269ZM320.765 66.8394C321.068 66.5108 321.45 66.3359 321.998 66.3359V64.3359C320.938 64.3359 320.008 64.7112 319.295 65.4829L320.765 66.8394ZM321.998 66.3359C322.514 66.3359 323.021 66.5168 323.543 66.9572L324.833 65.4286C324.001 64.7264 323.048 64.3359 321.998 64.3359V66.3359ZM323.543 66.9572C324.144 67.4638 324.767 68.1503 325.411 69.0345L327.028 67.8581C326.317 66.8803 325.587 66.0645 324.833 65.4286L323.543 66.9572ZM325.406 69.0275C326.187 70.121 327.001 70.9955 327.86 71.6087L329.022 69.9812C328.399 69.5364 327.733 68.8451 327.033 67.8651L325.406 69.0275ZM327.886 71.627C328.746 72.2001 329.658 72.5928 330.62 72.7901L331.022 70.8309C330.334 70.6898 329.659 70.4054 328.996 69.9629L327.886 71.627ZM330.649 72.7956C331.573 72.9573 332.704 73.0327 334.027 73.0327V71.0327C332.768 71.0327 331.762 70.9601 330.994 70.8255L330.649 72.7956ZM334.027 73.0327C335.523 73.0327 336.933 72.7675 338.247 72.2278L337.487 70.3777C336.432 70.8113 335.282 71.0327 334.027 71.0327V73.0327ZM338.247 72.2278C339.57 71.6844 340.66 70.8993 341.478 69.8576L339.906 68.6219C339.328 69.3575 338.534 69.9478 337.487 70.3777L338.247 72.2278ZM341.476 69.86C342.339 68.7695 342.771 67.5024 342.771 66.0977H340.771C340.771 67.0627 340.484 67.8903 339.907 68.6195L341.476 69.86ZM342.771 66.0977C342.771 64.805 342.349 63.6561 341.503 62.7038L340.008 64.0325C340.516 64.6037 340.771 65.2744 340.771 66.0977H342.771ZM341.513 62.7156C340.754 61.834 339.752 61.0936 338.543 60.4776L337.635 62.2597C338.669 62.7863 339.445 63.3789 339.998 64.0207L341.513 62.7156ZM338.543 60.4776C337.372 59.8811 335.871 59.2518 334.052 58.5884L333.367 60.4673C335.145 61.1157 336.564 61.7136 337.635 62.2597L338.543 60.4776ZM334.054 58.5892C331.014 57.4722 328.625 56.1771 326.853 54.7239L325.585 56.2703C327.58 57.9063 330.185 59.2983 333.365 60.4665L334.054 58.5892ZM326.858 54.7274C325.24 53.3851 324.426 51.6224 324.426 49.3398H322.426C322.426 52.1778 323.475 54.5198 325.581 56.2667L326.858 54.7274ZM324.426 49.3398C324.426 47.4157 324.942 45.7077 325.969 44.1864L324.311 43.0675C323.053 44.9317 322.426 47.0322 322.426 49.3398H324.426ZM325.964 44.1935C327.021 42.6561 328.469 41.4325 330.337 40.528L329.465 38.7279C327.313 39.77 325.587 41.2124 324.316 43.0604L325.964 44.1935ZM330.333 40.5297C332.215 39.6278 334.329 39.168 336.693 39.168V37.168C334.063 37.168 331.649 37.6814 329.469 38.7261L330.333 40.5297ZM336.693 39.168C338.64 39.168 340.488 39.4688 342.242 40.0666L342.887 38.1736C340.917 37.5019 338.85 37.168 336.693 37.168V39.168ZM342.251 40.0699C344.018 40.6521 345.376 41.4067 346.368 42.3052L347.711 40.8228C346.46 39.69 344.835 38.8153 342.877 38.1704L342.251 40.0699ZM346.368 42.3052C347.357 43.2004 347.722 44.0193 347.722 44.7695H349.722C349.722 43.2769 348.965 41.9588 347.711 40.8228L346.368 42.3052ZM347.722 44.7695C347.722 45.4221 347.522 45.8882 347.158 46.2524L348.572 47.6666C349.35 46.8881 349.722 45.8943 349.722 44.7695H347.722ZM347.158 46.2524C346.794 46.6165 346.327 46.8164 345.675 46.8164V48.8164C346.8 48.8164 347.793 48.445 348.572 47.6666L347.158 46.2524ZM345.675 46.8164C345.05 46.8164 344.159 46.4329 342.974 45.2881L341.584 46.7265C342.896 47.9939 344.268 48.8164 345.675 48.8164V46.8164ZM342.968 45.2828C342.036 44.3962 341.043 43.6886 339.989 43.1729L339.11 44.9697C339.96 45.3849 340.787 45.9681 341.59 46.7319L342.968 45.2828ZM340.013 43.1851C338.897 42.6022 337.551 42.3413 336.026 42.3413V44.3413C337.337 44.3413 338.339 44.5671 339.086 44.9575L340.013 43.1851ZM336.026 42.3413C334.563 42.3413 333.222 42.5816 332.021 43.0858L332.795 44.9298C333.711 44.5454 334.782 44.3413 336.026 44.3413V42.3413ZM332.037 43.0793C330.844 43.5564 329.863 44.246 329.143 45.1712L330.722 46.3991C331.187 45.8009 331.856 45.3056 332.78 44.9363L332.037 43.0793ZM329.152 45.1605C328.417 46.0791 328.044 47.146 328.044 48.3242H330.044C330.044 47.5982 330.264 46.9723 330.713 46.4099L329.152 45.1605ZM328.044 48.3242C328.044 49.9753 328.951 51.3172 330.442 52.3515L331.582 50.7081C330.449 49.9227 330.044 49.1275 330.044 48.3242H328.044ZM330.457 52.3618C331.87 53.3041 333.771 54.2437 336.131 55.1878L336.874 53.3308C334.579 52.4129 332.819 51.5328 331.566 50.6977L330.457 52.3618ZM336.131 55.1878C338.538 56.1507 340.468 57.0609 341.934 57.916L342.941 56.1885C341.36 55.2662 339.333 54.3145 336.874 53.3308L336.131 55.1878ZM341.939 57.919C343.367 58.7408 344.528 59.7792 345.436 61.0342L347.056 59.8623C345.975 58.3667 344.597 57.1411 342.936 56.1855L341.939 57.919ZM345.446 61.0482C346.31 62.2004 346.77 63.6511 346.77 65.4629H348.77C348.77 63.2968 348.213 61.4044 347.046 59.8482L345.446 61.0482ZM346.77 65.4629C346.77 67.4107 346.201 69.2134 345.042 70.8937L346.688 72.0292C348.069 70.0278 348.77 67.8315 348.77 65.4629H346.77ZM345.041 70.8957C343.9 72.5582 342.315 73.8998 340.252 74.9117L341.132 76.7074C343.47 75.5611 345.334 74.004 346.69 72.0271L345.041 70.8957ZM340.252 74.9117C338.201 75.9173 335.91 76.4282 333.36 76.4282V78.4282C336.185 78.4282 338.782 77.86 341.132 76.7074L340.252 74.9117ZM407.342 50.1968L406.351 50.3317L406.352 50.3349L407.342 50.1968ZM409.342 64.2568L408.352 64.4011L408.353 64.4066L409.342 64.2568ZM409.881 68.1924L408.89 68.3231L408.892 68.3353L409.881 68.1924ZM409.659 76.3174L409.019 75.5492L409.013 75.5545L409.006 75.56L409.659 76.3174ZM404.327 76.1587L405.011 75.4292L404.327 76.1587ZM402.391 60.8291L403.387 60.7377L403.302 59.8081L402.368 59.8294L402.391 60.8291ZM400.995 60.8608L400.972 59.8611L400.969 59.8612L400.995 60.8608ZM388.204 61.083L388.23 62.0827L388.235 62.0825L388.204 61.083ZM385.729 61.1465L385.703 60.1468L385.04 60.1638L384.798 60.7809L385.729 61.1465ZM380.587 74.8257L381.532 75.1537L381.535 75.1441L380.587 74.8257ZM374.366 76.1587L375.062 75.4401L375.061 75.4397L374.366 76.1587ZM373.668 72.5405L372.774 72.0933L372.763 72.1136L372.754 72.1344L373.668 72.5405ZM374.62 70.7949L373.758 70.2879L373.754 70.2946L373.75 70.3013L374.62 70.7949ZM376.524 67.2402L377.435 67.6541L377.439 67.6446L376.524 67.2402ZM379.19 61.21L380.105 61.6143L380.681 60.3115L379.26 60.2124L379.19 61.21ZM376.937 60.4482L376.319 61.2346L376.328 61.2415L376.337 61.2482L376.937 60.4482ZM378.937 55.3701L378.96 54.3704L378.948 54.3701H378.937V55.3701ZM381.634 55.4336L381.611 56.4333L382.296 56.4494L382.558 55.8166L381.634 55.4336ZM384.872 47.626L385.795 48.009L385.795 48.0086L384.872 47.626ZM389.601 36.3589L388.683 35.9607L388.682 35.9641L389.601 36.3589ZM393.631 27.4404L392.725 27.0169L392.725 27.0172L393.631 27.4404ZM403.153 23.5366L402.49 24.2853L402.5 24.2944L403.153 23.5366ZM404.454 26.2661L403.458 26.3566L403.459 26.3608L404.454 26.2661ZM401.883 55.624L401.896 56.6239L402.883 56.6114V55.624H401.883ZM401.82 54.8623L400.824 54.9562L400.826 54.9713L400.828 54.9863L401.82 54.8623ZM399.186 28.4243L400.18 28.3222L399.808 24.6902L398.278 28.0053L399.186 28.4243ZM394.996 37.9458L394.076 37.5537L394.075 37.5562L394.996 37.9458ZM390.204 49.689L391.13 50.0663L391.134 50.0552L390.204 49.689ZM388.395 54.3228L389.326 54.6863L389.329 54.6783L388.395 54.3228ZM387.887 55.624L386.955 55.2605L386.433 56.5982L387.869 56.6239L387.887 55.624ZM406.352 50.3349C407.093 55.6472 407.759 60.3361 408.352 64.4011L410.331 64.1125C409.739 60.0526 409.073 55.3681 408.333 50.0587L406.352 50.3349ZM408.353 64.4066C408.457 65.094 408.636 66.3967 408.89 68.3231L410.873 68.0616C410.619 66.1372 410.438 64.8162 410.331 64.107L408.353 64.4066ZM408.892 68.3353C409.167 70.2388 409.356 71.6154 409.46 72.4712L411.445 72.229C411.338 71.3498 411.146 69.9545 410.871 68.0494L408.892 68.3353ZM409.46 72.4712C409.567 73.3481 409.611 73.8701 409.611 74.0957H411.611C411.611 73.7289 411.55 73.0872 411.445 72.229L409.46 72.4712ZM409.611 74.0957C409.611 74.8016 409.39 75.2403 409.019 75.5492L410.299 77.0856C411.198 76.3365 411.611 75.2941 411.611 74.0957H409.611ZM409.006 75.56C408.627 75.8869 408.04 76.1108 407.12 76.1108V78.1108C408.358 78.1108 409.464 77.8058 410.312 77.0748L409.006 75.56ZM407.12 76.1108C406.116 76.1108 405.456 75.8459 405.011 75.4292L403.643 76.8882C404.553 77.741 405.754 78.1108 407.12 78.1108V76.1108ZM405.011 75.4292C404.595 75.0389 404.312 74.4098 404.312 73.3657H402.312C402.312 74.7761 402.705 76.0089 403.643 76.8882L405.011 75.4292ZM404.312 73.3657C404.312 71.638 403.999 67.4067 403.387 60.7377L401.395 60.9205C402.01 67.6239 402.312 71.7504 402.312 73.3657H404.312ZM402.368 59.8294L400.972 59.8611L401.017 61.8606L402.414 61.8288L402.368 59.8294ZM400.969 59.8612C399.326 59.9033 397.78 59.9243 396.329 59.9243V61.9243C397.799 61.9243 399.362 61.903 401.02 61.8605L400.969 59.8612ZM396.329 59.9243C394.325 59.9243 391.605 59.9776 388.173 60.0835L388.235 62.0825C391.659 61.9769 394.355 61.9243 396.329 61.9243V59.9243ZM388.178 60.0833L385.703 60.1468L385.754 62.1462L388.23 62.0827L388.178 60.0833ZM384.798 60.7809C382.28 67.1921 380.558 71.7727 379.639 74.5072L381.535 75.1441C382.436 72.462 384.141 67.9232 386.659 61.512L384.798 60.7809ZM379.642 74.4977C379.445 75.067 379.139 75.4413 378.738 75.6879C378.321 75.9441 377.723 76.1108 376.874 76.1108V78.1108C377.971 78.1108 378.965 77.8967 379.786 77.3912C380.623 76.8761 381.2 76.1078 381.532 75.1537L379.642 74.4977ZM376.874 76.1108C376.086 76.1108 375.509 75.8734 375.062 75.4401L373.671 76.8773C374.535 77.7136 375.63 78.1108 376.874 78.1108V76.1108ZM375.061 75.4397C374.655 75.0474 374.414 74.5 374.414 73.6831H372.414C372.414 74.9398 372.808 76.0428 373.671 76.8777L375.061 75.4397ZM374.414 73.6831C374.414 73.4549 374.464 73.2118 374.582 72.9467L372.754 72.1344C372.533 72.6309 372.414 73.1496 372.414 73.6831H374.414ZM374.562 72.9877C374.74 72.6318 375.047 72.069 375.49 71.2885L373.75 70.3013C373.305 71.0866 372.976 71.6876 372.774 72.0933L374.562 72.9877ZM375.482 71.3019C376.337 69.8492 376.991 68.6304 377.435 67.654L375.614 66.8264C375.212 67.712 374.596 68.863 373.758 70.2879L375.482 71.3019ZM377.439 67.6446L380.105 61.6143L378.276 60.8056L375.61 66.8359L377.439 67.6446ZM379.26 60.2124C378.498 60.1592 377.943 59.9528 377.537 59.6482L376.337 61.2482C377.116 61.8323 378.064 62.1338 379.121 62.2075L379.26 60.2124ZM377.555 59.6619C377.236 59.4111 377.048 59.063 377.048 58.4805H375.048C375.048 59.5906 375.454 60.5544 376.319 61.2346L377.555 59.6619ZM377.048 58.4805C377.048 57.6327 377.267 57.153 377.549 56.8707L376.135 55.4565C375.359 56.2321 375.048 57.297 375.048 58.4805H377.048ZM377.549 56.8707C377.86 56.5593 378.288 56.3701 378.937 56.3701V54.3701C377.85 54.3701 376.881 54.7099 376.135 55.4565L377.549 56.8707ZM378.913 56.3698L381.611 56.4333L381.658 54.4339L378.96 54.3704L378.913 56.3698ZM382.558 55.8166L384.716 50.6115L382.869 49.8455L380.711 55.0506L382.558 55.8166ZM384.716 50.6115L385.795 48.009L383.948 47.243L382.869 49.8455L384.716 50.6115ZM385.795 48.0086C387.784 43.207 389.358 39.456 390.519 36.7537L388.682 35.9641C387.516 38.6784 385.937 42.4388 383.948 47.2434L385.795 48.0086ZM390.518 36.7571C391.699 34.0374 393.038 31.073 394.537 27.8636L392.725 27.0172C391.22 30.2401 389.872 33.2214 388.683 35.9607L390.518 36.7571ZM394.537 27.864C395.248 26.3437 396.094 25.2735 397.044 24.5837C397.982 23.9019 399.075 23.5527 400.36 23.5527V21.5527C398.683 21.5527 397.173 22.0182 395.868 22.9656C394.575 23.905 393.538 25.2787 392.725 27.0169L394.537 27.864ZM400.36 23.5527C401.272 23.5527 401.957 23.813 402.49 24.2852L403.816 22.788C402.868 21.9484 401.691 21.5527 400.36 21.5527V23.5527ZM402.5 24.2944C403.033 24.7534 403.372 25.4063 403.458 26.3566L405.45 26.1756C405.325 24.7985 404.796 23.6316 403.805 22.7789L402.5 24.2944ZM403.459 26.3608C404.032 32.3892 404.996 40.3811 406.351 50.3317L408.333 50.0619C406.98 40.1231 406.019 32.1613 405.45 26.1715L403.459 26.3608ZM393.219 56.6875C395.657 56.6875 398.55 56.6663 401.896 56.6239L401.871 54.6241C398.53 54.6664 395.647 54.6875 393.219 54.6875V56.6875ZM402.883 55.624C402.883 55.39 402.856 55.0855 402.812 54.7383L400.828 54.9863C400.869 55.3162 400.883 55.5195 400.883 55.624H402.883ZM402.815 54.7684C402.223 48.4802 401.344 39.6643 400.18 28.3222L398.191 28.5264C399.354 39.8666 400.232 48.6761 400.824 54.9562L402.815 54.7684ZM398.278 28.0053C397.129 30.4932 395.729 33.6769 394.076 37.5537L395.916 38.3379C397.564 34.4706 398.957 31.3066 400.094 28.8434L398.278 28.0053ZM394.075 37.5562C392.443 41.415 390.842 45.3372 389.273 49.3227L391.134 50.0552C392.697 46.085 394.291 42.1784 395.917 38.3354L394.075 37.5562ZM389.278 49.3117C388.808 50.4647 388.202 52.0175 387.46 53.9672L389.329 54.6783C390.069 52.7348 390.668 51.1984 391.13 50.0663L389.278 49.3117ZM387.463 53.9592L386.955 55.2605L388.818 55.9876L389.326 54.6863L387.463 53.9592ZM387.869 56.6239C390.24 56.6662 392.025 56.6875 393.219 56.6875V54.6875C392.043 54.6875 390.273 54.6665 387.905 54.6242L387.869 56.6239ZM419.657 70.1284L420.634 70.34L420.635 70.3365L419.657 70.1284ZM421.339 61.6226L420.356 61.4369L420.355 61.4444L421.339 61.6226ZM422.799 52.0376L421.807 51.9104L421.807 51.9129L422.799 52.0376ZM424.925 34.4546L423.931 34.3461L423.931 34.3515L424.925 34.4546ZM426.607 24.6792L427.245 25.4492L427.252 25.4439L427.258 25.4385L426.607 24.6792ZM432.542 28.1069L431.562 27.9108L431.559 27.9266L431.556 27.9425L432.542 28.1069ZM432.13 30.2969L433.108 30.5033L433.109 30.4978L432.13 30.2969ZM430.416 39.2153L429.431 39.0415L429.43 39.0478L430.416 39.2153ZM428.639 51.752L429.631 51.877L429.631 51.875L428.639 51.752ZM426.988 65.6533L425.994 65.5446L425.994 65.5497L426.988 65.6533ZM426.227 73.9053L425.228 73.8466L425.228 73.8542L425.228 73.8618L426.227 73.9053ZM425.147 76.2222L424.503 75.4579L424.49 75.4688L424.477 75.4801L425.147 76.2222ZM422.481 76.1108C421.628 76.1108 421.05 75.87 420.637 75.4714L419.247 76.9094C420.105 77.7381 421.219 78.1108 422.481 78.1108V76.1108ZM420.637 75.4714C420.219 75.0665 419.99 74.5429 419.99 73.8101H417.99C417.99 75.0238 418.397 76.0871 419.247 76.9094L420.637 75.4714ZM419.99 73.8101C419.99 73.7146 420.027 73.3972 420.141 72.7663C420.249 72.1688 420.413 71.3615 420.634 70.34L418.679 69.9168C418.456 70.9478 418.287 71.7802 418.173 72.41C418.065 73.0063 417.99 73.5035 417.99 73.8101H419.99ZM420.635 70.3365C421.271 67.3443 421.834 64.499 422.323 61.8008L420.355 61.4444C419.87 64.1205 419.312 66.9457 418.679 69.9203L420.635 70.3365ZM422.321 61.8082C422.834 59.0951 423.324 55.8788 423.791 52.1623L421.807 51.9129C421.343 55.602 420.859 58.7757 420.356 61.4369L422.321 61.8082ZM423.791 52.1648C424.849 43.9127 425.559 38.041 425.92 34.5577L423.931 34.3515C423.572 37.8083 422.865 43.6586 421.807 51.9104L423.791 52.1648ZM425.919 34.563C426.3 31.0769 426.497 28.6345 426.497 27.2817H424.497C424.497 28.5104 424.313 30.8499 423.931 34.3461L425.919 34.563ZM426.497 27.2817C426.497 26.403 426.773 25.8403 427.245 25.4492L425.969 23.9092C424.96 24.7453 424.497 25.9176 424.497 27.2817H426.497ZM427.258 25.4385C427.766 25.0033 428.524 24.7271 429.654 24.7271V22.7271C428.203 22.7271 426.93 23.0856 425.957 23.9199L427.258 25.4385ZM429.654 24.7271C430.335 24.7271 430.809 24.9317 431.169 25.2911L432.583 23.8769C431.8 23.0937 430.793 22.7271 429.654 22.7271V24.7271ZM431.169 25.2911C431.548 25.6704 431.733 26.1124 431.733 26.6787H433.733C433.733 25.5947 433.346 24.6401 432.583 23.8769L431.169 25.2911ZM431.733 26.6787C431.733 26.8926 431.686 27.2886 431.562 27.9108L433.523 28.303C433.653 27.6558 433.733 27.0995 433.733 26.6787H431.733ZM431.556 27.9425C431.453 28.562 431.318 29.2794 431.15 30.0959L433.109 30.4978C433.281 29.664 433.421 28.9214 433.529 28.2713L431.556 27.9425ZM431.151 30.0905C430.577 32.8114 430.004 35.7953 429.431 39.0415L431.401 39.3891C431.971 36.1608 432.54 33.199 433.108 30.5033L431.151 30.0905ZM429.43 39.0478C428.877 42.3057 428.282 46.501 427.646 51.6289L429.631 51.875C430.265 46.7621 430.855 42.5995 431.402 39.3829L429.43 39.0478ZM427.647 51.6269C426.99 56.836 426.439 61.4754 425.994 65.5446L427.982 65.762C428.426 61.7063 428.975 57.0781 429.631 51.877L427.647 51.6269ZM425.994 65.5497C425.571 69.6094 425.314 72.3819 425.228 73.8466L427.225 73.964C427.308 72.5511 427.559 69.8222 427.983 65.7569L425.994 65.5497ZM425.228 73.8618C425.196 74.5869 424.943 75.0859 424.503 75.4579L425.792 76.9865C426.706 76.2159 427.173 75.1702 427.226 73.9487L425.228 73.8618ZM424.477 75.4801C424.05 75.8655 423.424 76.1108 422.481 76.1108V78.1108C423.782 78.1108 424.933 77.7637 425.818 76.9643L424.477 75.4801Z" fill="#339AF0" mask="url(#path-1-outside-1_14809_70)"/>
<path fill-rule="evenodd" clip-rule="evenodd" d="M23.5465 63.9289L42.4841 72.8582C44.8045 73.9523 47.4794 74.0081 49.8431 73.0117L69.7306 64.6283L69.7308 89.328C69.7308 90.3932 69.3501 91.4223 68.6591 92.2297L68.6104 92.2856L67.7819 93.2217L47.8371 101.681C46.7815 102.129 45.5852 102.104 44.5492 101.612L24.9765 92.3239C24.0632 91.1883 23.5466 89.7601 23.5466 88.2632L23.5465 63.9289ZM64.1839 75.009C64.3946 73.9 63.2409 71.2547 60.8341 73.4791C59.9219 74.3221 59.7609 75.5756 59.4942 76.6286C59.0571 78.354 58.8784 79.9062 58.6628 80.937C58.6259 81.1133 58.5894 81.29 58.5532 81.467L58.4991 81.7325C58.4363 82.0423 58.3746 82.3523 58.3139 82.6608L58.2621 82.9247C57.5323 86.6585 56.9585 90.1043 56.5872 90.3714C55.8357 90.9121 56.0565 89.2906 54.9236 89.3851C53.7907 89.4797 53.4346 90.9237 54.2728 92.338C55.111 93.7524 57.476 93.4038 58.4575 91.196C58.9555 90.0756 59.5698 86.4971 60.6209 80.937C60.7297 80.3615 60.8623 79.5702 61.0036 78.7645L61.0553 78.4712L61.0814 78.3248C61.3475 76.838 61.6341 75.427 61.8463 75.3636C62.1942 75.2596 62.1727 76.3265 62.7081 76.3837C63.2434 76.4409 63.9732 76.118 64.1839 75.009ZM27.0326 82.8056C26.5323 82.8056 26.1266 83.212 26.1266 83.7132C26.1266 84.5918 26.6308 85.3921 27.4225 85.7701L40.1909 91.8669C40.3127 91.925 40.4459 91.9552 40.5807 91.9552C41.0811 91.9552 41.4868 91.5488 41.4868 91.0475C41.4868 90.169 40.9826 89.3687 40.1909 88.9907L27.4225 82.8939C27.3007 82.8357 27.1675 82.8056 27.0326 82.8056ZM94.8564 54.0367L94.7364 79.3295C94.7293 80.8247 93.8337 82.1719 92.4592 82.7549L71.8897 91.4796C72.4728 90.6855 72.8107 89.7085 72.8107 88.6678L72.8107 63.3298L94.8564 54.0367ZM0 52.8264L21.0018 62.729V88.0429C21.0018 89.0142 21.2453 89.9433 21.6831 90.761L2.2166 81.5227C0.863001 80.8803 0 79.5141 0 78.0136V52.8264ZM27.0326 73.7456C26.5323 73.7456 26.1266 74.1519 26.1266 74.6532C26.1266 75.5318 26.6308 76.3321 27.4225 76.7101L40.1909 82.8069C40.3127 82.865 40.4459 82.8952 40.5807 82.8952C41.0811 82.8952 41.4868 82.4888 41.4868 81.9875C41.4868 81.109 40.9826 80.3087 40.1909 79.9307L27.4225 73.8339C27.3007 73.7757 27.1675 73.7456 27.0326 73.7456ZM91.5726 62.9011C91.3306 62.5124 90.8199 62.3938 90.4319 62.6362C89.6444 63.1281 89.1658 63.9922 89.1658 64.9219V73.5879C89.1658 75.4925 88.0292 77.2125 86.2792 77.9565L83.974 78.9365C83.7256 79.0421 83.4586 79.0965 83.1889 79.0965C82.0789 79.0965 81.1791 78.1951 81.1791 77.0832V67.7523C81.1791 67.6484 81.1615 67.5452 81.1269 67.4471C80.9586 66.9695 80.4357 66.7189 79.9589 66.8875C79.229 67.1456 78.7433 67.8397 78.7501 68.6152L78.8401 78.8469C78.8436 79.2487 78.9202 79.6464 79.066 80.0207C79.7292 81.7223 81.6438 82.5632 83.3424 81.8989L86.3086 80.7388C89.5586 79.4678 91.698 76.3302 91.698 72.8351V63.34C91.698 63.1848 91.6545 63.0328 91.5726 62.9011ZM5.96215 61.7429C5.67546 61.2367 5.0494 61.035 4.52191 61.2789C4.49816 61.2899 4.47488 61.3018 4.45211 61.3148C3.99763 61.5727 3.83789 62.1508 4.09532 62.6061L8.72614 70.7963L4.85862 74.0334C4.16981 74.6099 4.0508 75.6219 4.5795 76.3419L4.60743 76.3789C4.62219 76.3979 4.63739 76.4166 4.65301 76.4349C5.21381 77.0923 6.20037 77.1697 6.85654 76.6079L10.3305 73.6336L14.7064 81.3728C14.7121 81.383 14.7181 81.393 14.7242 81.4029L14.743 81.4324C15.0379 81.8756 15.6356 81.9953 16.0779 81.6999C16.5633 81.3757 16.7163 80.731 16.4284 80.2227L11.9239 72.2693L16.1914 68.6156C16.1963 68.6113 16.2012 68.6071 16.2061 68.6028L16.2208 68.5897C16.8408 68.0305 16.8908 67.0735 16.3325 66.4524C15.7534 65.8082 14.7695 65.7382 14.1054 66.294L10.3295 69.4542L5.96215 61.7429ZM47.367 21.2736L67.1687 30.5678C68.7321 31.3016 69.7308 32.8752 69.7308 34.6048L69.7306 60.8836L51.0947 68.983C47.9397 70.3541 44.3472 70.2927 41.2407 68.8146L23.5465 60.3949L23.5466 34.6731C23.5466 32.6057 24.774 30.7388 26.6646 29.9206L26.7259 29.8945L47.367 21.2736ZM63.4051 44.1106C63.1933 43.6074 62.6144 43.3716 62.1121 43.5838L54.7053 46.7134C54.5119 46.7952 54.335 46.9116 54.1834 47.057C53.4962 47.7162 53.4725 48.8086 54.1305 49.497L57.3838 52.9008L53.627 59.6759C53.4579 59.9809 53.4361 60.3463 53.5677 60.6694C53.8074 61.2576 54.4777 61.5399 55.0649 61.2998L62.0561 58.4413C62.8296 58.125 63.3644 57.4054 63.445 56.5724C63.4577 56.441 63.439 56.3084 63.3904 56.1857C63.2214 55.759 62.7392 55.5503 62.3133 55.7196L56.9276 57.8601L59.7243 52.6998C59.9609 52.2632 59.891 51.7237 59.551 51.3621L56.8768 48.5176L62.4696 46.1351C63.1668 45.8381 63.5782 45.1094 63.4732 44.3578C63.4613 44.2728 63.4384 44.1897 63.4051 44.1106ZM72.421 10.8099L92.7608 20.3021C94.1327 20.9424 95.0072 22.3241 95 23.8403L94.8758 49.9556L72.8107 59.545L72.8107 34.2024C72.8107 32.0417 71.572 30.0754 69.6304 29.144L69.5682 29.1147L50.174 20.1013L72.421 10.8099ZM23.3875 10.0188L44.538 19.9458L42.3602 20.8789L24.4516 28.3358C22.3629 29.2055 21.0018 31.2488 21.0018 33.5148V59.1841L0 49.1907V22.871C0 21.0791 1.07094 19.4614 2.71869 18.7642L23.3875 10.0188ZM27.752 48.5773C27.2507 48.5773 26.8444 48.9844 26.8444 49.4865C26.8444 50.3648 27.3492 51.1647 28.1412 51.5414L39.7593 57.0669C39.8809 57.1247 40.0139 57.1548 40.1485 57.1548C40.6498 57.1548 41.0561 56.7477 41.0561 56.2456C41.0561 55.3672 40.5513 54.5674 39.7593 54.1907L28.1412 48.6652C28.0196 48.6073 27.8866 48.5773 27.752 48.5773ZM90.7765 31.4631C90.5919 31.0277 90.09 30.8246 89.6554 31.0096L78.8531 35.6055C78.1239 35.9157 77.6342 36.6141 77.5903 37.4065C77.5835 37.5293 77.6047 37.652 77.6522 37.7654C77.8253 38.1781 78.2995 38.3721 78.7115 38.1987L79.8154 37.734V49.3315C79.8154 49.4173 79.8294 49.5024 79.8567 49.5834L79.8715 49.6236C80.0325 50.0269 80.4894 50.2231 80.892 50.0617C81.5423 49.8012 81.9687 49.1702 81.9687 48.4687V36.8277L86.2752 35.0151V46.8867C86.2752 46.9725 86.2892 47.0576 86.3166 47.1387L86.3314 47.1788C86.4924 47.5821 86.9493 47.7783 87.3519 47.617C88.0021 47.3564 88.4285 46.7255 88.4285 46.0239V34.1088L89.6534 33.5935C90.3606 33.2958 90.8257 32.6102 90.844 31.8449L90.8445 31.7979C90.8445 31.6829 90.8214 31.569 90.7765 31.4631ZM9.74594 30.9778C9.35818 30.9778 9.04383 31.2927 9.04383 31.6812V38.3361L4.64949 36.2462C4.52516 36.1871 4.39053 36.1532 4.2534 36.1465L4.20187 36.1452C3.62545 36.1452 3.15816 36.6133 3.15816 37.1908C3.15816 38.2008 3.73866 39.1207 4.64949 39.5538L9.04383 41.6437V47.8422C9.04383 48.6682 9.45956 49.4372 10.147 49.8889L10.1922 49.9179C10.3115 49.9926 10.4494 50.0322 10.5901 50.0322C11.0046 50.0322 11.3407 49.6956 11.3407 49.2803V42.7361L15.8786 44.8944C16.0029 44.9535 16.1375 44.9873 16.2747 44.9941L16.3262 44.9954C16.9026 44.9954 17.3699 44.5273 17.3699 43.9498C17.3699 42.9398 16.7894 42.0199 15.8786 41.5867L11.3407 39.4285V33.5758C11.3407 32.6527 10.9375 31.7769 10.2392 31.1777L10.1922 31.1382C10.0665 31.0345 9.90878 30.9778 9.74594 30.9778ZM54.954 28.5285C53.9951 27.0651 50.4596 26.1427 44.2415 27.9448C38.0233 29.7469 38.0688 31.9379 38.5159 32.9855C38.963 34.033 43.1375 34.9594 48.0521 33.7872C52.9666 32.615 55.9128 29.9918 54.954 28.5285ZM42.8932 30.0147L47.7593 32.5213C47.7143 32.5328 47.6691 32.5439 47.624 32.5548C44.7479 33.2447 41.1839 33.2077 40.882 32.5548C40.6736 32.1042 41.3733 30.9354 42.8932 30.0147ZM45.4291 29.0119C48.6734 28.283 51.7827 28.0011 52.4303 28.9132C52.9002 29.5752 51.6715 30.8309 49.8628 31.7336L44.9405 29.1356C45.099 29.0908 45.2619 29.0494 45.4291 29.0119ZM81.4523 18.9785C80.8788 17.4488 77.865 16.8841 74.8377 17.5015C74.7026 17.5291 74.0435 17.71 73.3438 17.9052L73.2359 17.9353C73.2207 17.9396 73.2055 17.9438 73.1902 17.9481L73.0989 17.9737C73.0837 17.9779 73.0684 17.9822 73.0532 17.9864L72.9622 18.0119C72.9471 18.0162 72.932 18.0204 72.9169 18.0246L72.8268 18.0499C72.1239 18.2472 71.5022 18.4236 71.4718 18.4324C71.3047 18.4786 71.1434 18.5227 70.9862 18.5652L70.7584 18.6264C70.6555 18.654 70.5544 18.6807 70.455 18.7068L70.3036 18.7464C70.291 18.7497 70.2826 18.7518 70.2757 18.7536L70.2561 18.7587C70.2491 18.7605 70.2407 18.7627 70.2282 18.7659C68.7864 19.1387 65.8999 19.8987 61.5686 21.0459C61.3496 21.1039 61.2189 21.3289 61.2768 21.5484C61.3036 21.6499 61.3682 21.7373 61.4572 21.7926L61.5051 21.8214C61.9391 22.0744 62.4538 22.1526 62.9443 22.0387L67.9685 20.8724L67.9764 20.9236C68.1752 22.1586 68.8409 22.9435 69.9671 23.267C70.8442 23.519 72.0202 23.6562 73.0796 23.5937C74.5275 23.5084 75.926 23.108 76.3618 22.6424L76.4046 22.596C76.8545 22.1025 77.0636 21.6595 77.0246 21.2664L77.0208 21.2355L77.0469 21.2325C80.3525 20.846 81.8438 20.1181 81.4645 19.0124L81.4523 18.9785ZM77.4162 18.5801C77.9777 18.5545 78.3654 18.6349 78.6393 18.8517C78.8932 19.0527 78.8164 19.3167 78.4577 19.5853C78.1094 19.8461 77.5801 20.0316 77.1641 20.0316C76.8147 20.0316 76.4212 19.9741 75.6683 19.8311C75.653 19.8282 75.6427 19.8262 75.6342 19.8246L75.6103 19.8201C75.6017 19.8184 75.5915 19.8165 75.5761 19.8136C75.4286 19.7854 75.2963 19.7606 75.1768 19.7386L75.0773 19.7205C74.547 19.625 74.2823 19.593 74.0088 19.593C73.1322 19.593 72.813 19.8959 73.0838 20.5257C73.1852 20.7615 73.3713 20.8571 73.8243 20.9877L73.8857 21.0054C74.3497 21.1403 74.4761 21.2491 74.389 21.5528C74.2037 22.199 73.2806 22.4495 72.0277 22.3272C71.0508 22.2319 70.4402 21.8664 70.3503 21.399C70.3168 21.2254 70.4518 21.0554 70.7472 20.8461C70.7978 20.8103 71.0015 20.674 71.0451 20.6424C71.1578 20.5605 71.2098 20.5058 71.2098 20.435C71.2098 20.3563 71.1803 20.2999 71.1011 20.1884C71.0154 20.0679 71.0034 20.0334 71.0353 19.9973C71.101 19.9227 72.1472 19.5965 73.2531 19.3135L73.3639 19.2854L73.4193 19.2715L73.538 19.242C73.6579 19.2124 73.7769 19.1837 73.8941 19.1562L74.0125 19.1286C74.5117 19.0134 74.9609 18.9234 75.3283 18.8664C75.3983 18.8555 75.4705 18.8442 75.5481 18.8317C76.5631 18.6694 76.8684 18.6203 77.0886 18.5996L77.1142 18.5973L77.1392 18.5952L77.1658 18.5932L77.1923 18.5914L77.2189 18.5897C77.2771 18.5863 77.3385 18.5836 77.4162 18.5801ZM20.9373 13.8954C20.6217 13.8516 20.3228 14.05 20.2401 14.3583C20.238 14.3662 20.2361 14.3741 20.2343 14.382C20.1728 14.6633 20.3506 14.9413 20.6314 15.0029C23.3069 15.59 24.5418 16.5017 24.3362 17.738C24.1245 19.0108 20.9913 19.8897 14.9366 20.3748C14.5635 20.4047 14.2525 20.6727 14.1673 21.0379C14.1567 21.0832 14.1529 21.1299 14.1561 21.1763C14.1738 21.4339 14.3966 21.6283 14.6537 21.6106C18.275 21.3612 21.4007 21.0419 24.0305 20.6528C26.6853 20.2599 30.0883 20.0166 34.2395 19.9228C34.5719 19.9153 34.8375 19.6432 34.8375 19.31L34.8375 19.3046C34.8345 18.9751 34.5654 18.7103 34.2364 18.7133C32.6586 18.7276 31.0808 18.7796 29.503 18.8694C27.7249 18.9706 26.5425 19.0858 25.9559 19.2151C27.0599 18.0777 27.2516 16.9983 26.5309 15.9771C25.8505 15.0129 23.986 14.319 20.9373 13.8954ZM50.2954 0.484233L69.2823 9.34519L47.2965 18.764L26.0527 8.89118L46.1024 0.407933C47.448 -0.161415 48.9713 -0.133696 50.2954 0.484233ZM53.6599 7.22222C51.2409 5.74656 47.8957 5.74656 45.7224 6.09021L45.6522 6.10129L45.5112 6.12344C45.3462 6.1493 45.1798 6.17527 45.0128 6.20186L44.7978 6.23643L44.6544 6.25999C42.7892 6.56924 40.9267 7.00276 40.2425 8.28422C39.4266 9.81213 41.992 10.8356 42.8747 11.2321C43.405 11.4704 44.5368 11.7228 45.486 11.8732C46.1167 11.9732 46.6669 11.9478 46.9062 12.1349C47.1722 12.3427 47.2562 12.7849 47.5059 13.119C47.8191 13.538 48.2982 13.8455 48.6456 13.9751C49.2698 14.2079 50.7868 13.9751 50.7868 13.4989C50.7868 13.3054 50.5485 13.0886 50.291 12.8813L50.2314 12.8336L50.1717 12.7864C49.8342 12.5201 49.5216 12.2785 49.7244 12.1349C49.9004 12.0101 51.3607 11.9925 54.1051 11.5068C54.7207 11.3978 55.942 11.1091 57.769 10.6406C58.0951 10.5569 58.2917 10.2243 58.2083 9.89766C58.1968 9.85292 58.1804 9.80962 58.1592 9.7686C57.9527 9.36865 57.501 9.16087 57.0636 9.26468L52.4817 10.3523C52.4817 10.3523 52.5108 10.3389 52.5621 10.3134L52.5994 10.2946C53.2002 9.99046 55.8127 8.53556 53.6599 7.22222ZM47.5059 7.09653C51.116 7.09653 52.0597 7.92544 52.0597 8.43161C52.0597 8.65411 51.4526 8.91681 50.2383 9.50733C49.82 9.71075 49.0305 10.1129 47.8697 10.7139C46.4036 10.6041 45.325 10.4391 44.634 10.2187C43.5975 9.88815 42.4154 9.19736 42.6847 8.72562C42.9539 8.25389 43.8958 7.09653 47.5059 7.09653Z" fill="#339AEF"/>
</svg>
